solid OpenSCAD_Model
  facet normal 0 0 -1
    outer loop
      vertex -4 -0.019999999999999574 0
      vertex -4 1.382852031979061 0
      vertex -3.5069980611391562 1.538294946216876 0
    endloop
  endfacet
  facet normal 0 0 -1
    outer loop
      vertex -4 -0.019999999999999574 0
      vertex 0 0 0
      vertex -0.45807531096861304 -0.019999999999999574 0
    endloop
  endfacet
  facet normal 0 0 -1
    outer loop
      vertex -4 -0.019999999999999574 0
      vertex 0 2 0
      vertex 0 0 0
    endloop
  endfacet
  facet normal 0 0 -1
    outer loop
      vertex -4 -0.019999999999999574 0
      vertex -3.5069980611391562 1.538294946216876 0
      vertex -2.3529328073869062 1.7941450533154182 0
    endloop
  endfacet
  facet normal 0 0 -1
    outer loop
      vertex -4 -0.019999999999999574 0
      vertex -2.3529328073869062 1.7941450533154182 0
      vertex -1.1809603142307683 1.9484381591431514 0
    endloop
  endfacet
  facet normal -0.3007057995042738 0.9537169507482267 0
    outer loop
      vertex -4 1.382852031979061 0
      vertex -4 1.382852031979061 7
      vertex -3.5069980611391562 1.538294946216876 0
    endloop
  endfacet
  facet normal -0.2164396139381015 0.9762960071199336 0
    outer loop
      vertex -3.5069980611391562 1.538294946216876 0
      vertex -3.5069980611391562 1.538294946216876 7
      vertex -2.3529328073869062 1.7941450533154182 0
    endloop
  endfacet
  facet normal 0 0 -1
    outer loop
      vertex -4 -0.019999999999999574 0
      vertex -1.1809603142307683 1.9484381591431514 0
      vertex 0 2 0
    endloop
  endfacet
  facet normal -0.04361938736533644 0.9990482215818577 2.8985097321592203e-16
    outer loop
      vertex -1.1809603142307683 1.9484381591431514 0
      vertex -0.4648800879147694 1.979702897022248 3.003061434259685
      vertex 0 2 0
    endloop
  endfacet
  facet normal -0.04361938736533073 0.9990482215818579 -1.0271538474908043e-15
    outer loop
      vertex -1.1809603142307683 1.9484381591431514 0
      vertex -0.6309340799861507 1.9724528231546898 3.098932751282109
      vertex -0.55 1.9759864814003176 3.0473720558371173
    endloop
  endfacet
  facet normal -0.043619387365332385 0.9990482215818579 -6.861373863106512e-16
    outer loop
      vertex -1.1809603142307683 1.9484381591431514 0
      vertex -0.55 1.9759864814003176 3.0473720558371173
      vertex -0.4648800879147694 1.979702897022248 3.003061434259685
    endloop
  endfacet
  facet normal -0.043619387365353146 0.999048221581857 -2.3067122061125948e-15
    outer loop
      vertex 0 2 0
      vertex -0.4648800879147694 1.979702897022248 3.003061434259685
      vertex -0.37622215765823563 1.983573785853567 2.9663381171355008
    endloop
  endfacet
  facet normal -0.04361938736533034 0.999048221581858 5.978116644397016e-16
    outer loop
      vertex 0 2 0
      vertex -0.37622215765823563 1.983573785853567 2.9663381171355008
      vertex -0.2847009496127728 1.9875696880929574 2.9374815910820247
    endloop
  endfacet
  facet normal -0.04361938736533463 0.9990482215818578 1.786124141336658e-16
    outer loop
      vertex 0 2 0
      vertex -0.2847009496127728 1.9875696880929574 2.9374815910820247
      vertex -0.19101299543362338 1.9916601925115884 2.916711471686571
    endloop
  endfacet
  facet normal -0.04361938736534758 0.9990482215818574 -6.705087558144152e-16
    outer loop
      vertex 0 2 0
      vertex -0.19101299543362338 1.9916601925115884 2.916711471686571
      vertex -0.09587131702242399 1.995814167900921 2.90418583209908
    endloop
  endfacet
  facet normal -0.04361938736532731 0.9990482215818581 0
    outer loop
      vertex 0 2 0
      vertex -0.09587131702242399 1.995814167900921 2.90418583209908
      vertex 0 2 2.9
    endloop
  endfacet
  facet normal -0.13052619222005202 0.9914448613738103 0
    outer loop
      vertex -2.3529328073869062 1.7941450533154182 0
      vertex -2.3529328073869062 1.7941450533154182 7
      vertex -1.1809603142307683 1.9484381591431514 0
    endloop
  endfacet
  facet normal -0.043619387365337624 0.9990482215818577 3.8245774301645157e-16
    outer loop
      vertex -1.1809603142307683 1.9484381591431514 0
      vertex -0.8426488874308758 1.963209155033958 3.2929336293448066
      vertex -0.7778174593052024 1.9660397563160306 3.2221825406947975
    endloop
  endfacet
  facet normal -0.0436193873653178 0.9990482215818586 -1.6614914830453717e-15
    outer loop
      vertex -1.1809603142307683 1.9484381591431514 0
      vertex -0.901067248717891 1.960658554296998 3.369065920013849
      vertex -0.8426488874308758 1.963209155033958 3.2929336293448066
    endloop
  endfacet
  facet normal -0.04361938736535696 0.9990482215818568 1.599569415232516e-15
    outer loop
      vertex -1.1809603142307683 1.9484381591431514 0
      vertex -0.9526279441628825 1.95840736571685 3.45
      vertex -0.901067248717891 1.960658554296998 3.369065920013849
    endloop
  endfacet
  facet normal -0.04361938736533017 0.999048221581858 -1.7671504666494266e-16
    outer loop
      vertex -1.1809603142307683 1.9484381591431514 0
      vertex -0.996938565740315 1.9564727221979172 3.5351199120852304
      vertex -0.9526279441628825 1.95840736571685 3.45
    endloop
  endfacet
  facet normal -0.04361938736530503 0.9990482215818591 -1.4874414291469906e-15
    outer loop
      vertex -1.1809603142307683 1.9484381591431514 0
      vertex -1.0336618828644994 1.9548693475455483 3.6237778423417644
      vertex -0.996938565740315 1.9564727221979172 3.5351199120852304
    endloop
  endfacet
  facet normal -0.04361938736538329 0.9990482215818557 1.6980600268093846e-15
    outer loop
      vertex -1.1809603142307683 1.9484381591431514 0
      vertex -1.0625184089179753 1.953609444408988 3.715299050387227
      vertex -1.0336618828644994 1.9548693475455483 3.6237778423417644
    endloop
  endfacet
  facet normal -0.043619387365292035 0.9990482215818597 -1.2148571910303487e-15
    outer loop
      vertex -1.1809603142307683 1.9484381591431514 0
      vertex -1.0832885283134288 1.9527026014118611 3.8089870045663767
      vertex -1.0625184089179753 1.953609444408988 3.715299050387227
    endloop
  endfacet
  facet normal -0.043619387365339546 0.9990482215818577 5.45589851121097e-16
    outer loop
      vertex -1.1809603142307683 1.9484381591431514 0
      vertex -0.7070663706551933 1.9691288155582942 3.157351112569124
      vertex -0.6309340799861507 1.9724528231546898 3.098932751282109
    endloop
  endfacet
  facet normal -0.04361938736534265 0.9990482215818575 1.0063059919009683e-15
    outer loop
      vertex -1.1809603142307683 1.9484381591431514 0
      vertex -0.7778174593052024 1.9660397563160306 3.2221825406947975
      vertex -0.7070663706551933 1.9691288155582942 3.157351112569124
    endloop
  endfacet
  facet normal -0.04361938736541216 0.9990482215818545 1.869706954459394e-15
    outer loop
      vertex -1.1809603142307683 1.9484381591431514 0
      vertex -1.0958141679009201 1.952155720176938 3.904128682977576
      vertex -1.0832885283134288 1.9527026014118611 3.8089870045663767
    endloop
  endfacet
  facet normal -0.043619387365073106 0.9990482215818693 -5.538948267187997e-15
    outer loop
      vertex -1.1809603142307683 1.9484381591431514 0
      vertex -1.1 1.951972962800637 4
      vertex -1.0958141679009201 1.952155720176938 3.904128682977576
    endloop
  endfacet
  facet normal -0.043619387365346214 0.9990482215818574 0
    outer loop
      vertex -1.1809603142307683 1.9484381591431514 0
      vertex -1.1809603142307683 1.9484381591431514 7
      vertex -1.1 1.951972962800637 4
    endloop
  endfacet
  facet normal -0.3007057995042738 0.9537169507482267 0
    outer loop
      vertex -3.5069980611391562 1.538294946216876 0
      vertex -4 1.382852031979061 7
      vertex -3.5069980611391562 1.538294946216876 7
    endloop
  endfacet
  facet normal -0.2164396139381015 0.9762960071199336 0
    outer loop
      vertex -2.3529328073869062 1.7941450533154182 0
      vertex -3.5069980611391562 1.538294946216876 7
      vertex -2.3529328073869062 1.7941450533154182 7
    endloop
  endfacet
  facet normal -0.13052619222005202 0.9914448613738103 0
    outer loop
      vertex -1.1809603142307683 1.9484381591431514 0
      vertex -2.3529328073869062 1.7941450533154182 7
      vertex -1.1809603142307683 1.9484381591431514 7
    endloop
  endfacet
  facet normal -0.0436193873650992 0.9990482215818681 6.678104613285705e-15
    outer loop
      vertex -1.1809603142307683 1.9484381591431514 7
      vertex -1.0958141679009201 1.952155720176938 4.095871317022424
      vertex -1.1 1.951972962800637 4
    endloop
  endfacet
  facet normal -0.043619387365408116 0.9990482215818546 -2.3964345976298553e-15
    outer loop
      vertex -1.1809603142307683 1.9484381591431514 7
      vertex -1.0832885283134288 1.9527026014118611 4.191012995433623
      vertex -1.0958141679009201 1.952155720176938 4.095871317022424
    endloop
  endfacet
  facet normal -0.04361938736529376 0.9990482215818597 1.5888550550472508e-15
    outer loop
      vertex -1.1809603142307683 1.9484381591431514 7
      vertex -1.0625184089179753 1.953609444408988 4.284700949612773
      vertex -1.0832885283134288 1.9527026014118611 4.191012995433623
    endloop
  endfacet
  facet normal -0.04361938736538153 0.9990482215818557 -2.2484160592777216e-15
    outer loop
      vertex -1.1809603142307683 1.9484381591431514 7
      vertex -1.0336618828644994 1.9548693475455483 4.376222157658235
      vertex -1.0625184089179753 1.953609444408988 4.284700949612773
    endloop
  endfacet
  facet normal -0.04361938736530624 0.999048221581859 1.9858814764212524e-15
    outer loop
      vertex -1.1809603142307683 1.9484381591431514 7
      vertex -0.996938565740315 1.9564727221979172 4.46488008791477
      vertex -1.0336618828644994 1.9548693475455483 4.376222157658235
    endloop
  endfacet
  facet normal -0.043619387365330296 0.999048221581858 2.3939736510938743e-16
    outer loop
      vertex -1.1809603142307683 1.9484381591431514 7
      vertex -0.9526279441628825 1.95840736571685 4.55
      vertex -0.996938565740315 1.9564727221979172 4.46488008791477
    endloop
  endfacet
  facet normal -0.043619387365356095 0.9990482215818569 -2.168981674344294e-15
    outer loop
      vertex -1.1809603142307683 1.9484381591431514 7
      vertex -0.901067248717891 1.960658554296998 4.630934079986151
      vertex -0.9526279441628825 1.95840736571685 4.55
    endloop
  endfacet
  facet normal -0.043619387365318577 0.9990482215818585 2.2674271833962694e-15
    outer loop
      vertex -1.1809603142307683 1.9484381591431514 7
      vertex -0.8426488874308758 1.963209155033958 4.707066370655193
      vertex -0.901067248717891 1.960658554296998 4.630934079986151
    endloop
  endfacet
  facet normal -0.04361938736533749 0.9990482215818577 -5.259206938235577e-16
    outer loop
      vertex -1.1809603142307683 1.9484381591431514 7
      vertex -0.7778174593052024 1.9660397563160306 4.7778174593052025
      vertex -0.8426488874308758 1.963209155033958 4.707066370655193
    endloop
  endfacet
  facet normal -0.04361938736534227 0.9990482215818576 -1.3983188687249878e-15
    outer loop
      vertex -1.1809603142307683 1.9484381591431514 7
      vertex -0.7070663706551933 1.9691288155582942 4.842648887430876
      vertex -0.7778174593052024 1.9660397563160306 4.7778174593052025
    endloop
  endfacet
  facet normal -0.04361938736533938 0.9990482215818577 -7.578818908071973e-16
    outer loop
      vertex -1.1809603142307683 1.9484381591431514 7
      vertex -0.6309340799861507 1.9724528231546898 4.901067248717891
      vertex -0.7070663706551933 1.9691288155582942 4.842648887430876
    endloop
  endfacet
  facet normal -0.043619387365331 0.9990482215818579 1.4401238539294697e-15
    outer loop
      vertex -1.1809603142307683 1.9484381591431514 7
      vertex -0.55 1.9759864814003176 4.952627944162883
      vertex -0.6309340799861507 1.9724528231546898 4.901067248717891
    endloop
  endfacet
  facet normal -0.04361938736533252 0.9990482215818579 9.723794314252651e-16
    outer loop
      vertex -1.1809603142307683 1.9484381591431514 7
      vertex -0.4648800879147694 1.979702897022248 4.996938565740315
      vertex -0.55 1.9759864814003176 4.952627944162883
    endloop
  endfacet
  facet normal -0.043619387365350024 0.999048221581857 -5.301464041122921e-15
    outer loop
      vertex -1.1809603142307683 1.9484381591431514 7
      vertex -0.37622215765823563 1.983573785853567 5.033661882864499
      vertex -0.4648800879147694 1.979702897022248 4.996938565740315
    endloop
  endfacet
  facet normal -0.04361938736533129 0.999048221581858 2.3979385837387573e-15
    outer loop
      vertex -1.1809603142307683 1.9484381591431514 7
      vertex -0.2847009496127728 1.9875696880929574 5.062518408917976
      vertex -0.37622215765823563 1.983573785853567 5.033661882864499
    endloop
  endfacet
  facet normal -0.04361938736533485 0.9990482215818578 7.455824761929692e-16
    outer loop
      vertex -1.1809603142307683 1.9484381591431514 7
      vertex -0.19101299543362338 1.9916601925115884 5.083288528313429
      vertex -0.2847009496127728 1.9875696880929574 5.062518408917976
    endloop
  endfacet
  facet normal -0.043619387365346735 0.9990482215818571 -5.432780894256447e-15
    outer loop
      vertex -1.1809603142307683 1.9484381591431514 7
      vertex -0.09587131702242399 1.995814167900921 5.095814167900921
      vertex -0.19101299543362338 1.9916601925115884 5.083288528313429
    endloop
  endfacet
  facet normal -0.04361938736532731 0.9990482215818582 0
    outer loop
      vertex 0 2 7
      vertex 0 2 5.1
      vertex -0.09587131702242399 1.995814167900921 5.095814167900921
    endloop
  endfacet
  facet normal -0.043619387365336444 0.9990482215818578 4.581464774455834e-16
    outer loop
      vertex -1.1809603142307683 1.9484381591431514 7
      vertex 0 2 7
      vertex -0.09587131702242399 1.995814167900921 5.095814167900921
    endloop
  endfacet
  facet normal 0 0 -1
    outer loop
      vertex 0.45807531096861304 -0.019999999999999574 0
      vertex 0 0 0
      vertex 1.1809603142307683 1.9484381591431514 0
    endloop
  endfacet
  facet normal 0 0 -1
    outer loop
      vertex 0.45807531096861304 -0.019999999999999574 0
      vertex 3.5069980611391562 1.538294946216876 0
      vertex 4 -0.019999999999999574 0
    endloop
  endfacet
  facet normal 0 0 -1
    outer loop
      vertex 4 -0.019999999999999574 0
      vertex 3.5069980611391562 1.538294946216876 0
      vertex 4 1.382852031979061 0
    endloop
  endfacet
  facet normal 0 0 -1
    outer loop
      vertex 0 0 0
      vertex 0 2 0
      vertex 1.1809603142307683 1.9484381591431514 0
    endloop
  endfacet
  facet normal 0 0 -1
    outer loop
      vertex 0.45807531096861304 -0.019999999999999574 0
      vertex 1.1809603142307683 1.9484381591431514 0
      vertex 2.3529328073869062 1.7941450533154182 0
    endloop
  endfacet
  facet normal 0 0 -1
    outer loop
      vertex 0.45807531096861304 -0.019999999999999574 0
      vertex 2.3529328073869062 1.7941450533154182 0
      vertex 3.5069980611391562 1.538294946216876 0
    endloop
  endfacet
  facet normal 0.04361938736533644 0.9990482215818577 -3.020818900371007e-16
    outer loop
      vertex 0 2 0
      vertex 0.09587131702242399 1.995814167900921 2.90418583209908
      vertex 1.1809603142307683 1.9484381591431514 0
    endloop
  endfacet
  facet normal 0.04361938736532731 0.9990482215818581 0
    outer loop
      vertex 0 2 0
      vertex 0 2 2.9
      vertex 0.09587131702242399 1.995814167900921 2.90418583209908
    endloop
  endfacet
  facet normal 0.04361938736534696 0.9990482215818571 3.649811196686207e-15
    outer loop
      vertex 1.1809603142307683 1.9484381591431514 0
      vertex 0.09587131702242399 1.995814167900921 2.90418583209908
      vertex 0.19101299543362338 1.9916601925115884 2.916711471686571
    endloop
  endfacet
  facet normal 0.04361938736533478 0.9990482215818578 -5.078464187926544e-16
    outer loop
      vertex 1.1809603142307683 1.9484381591431514 0
      vertex 0.19101299543362338 1.9916601925115884 2.916711471686571
      vertex 0.2847009496127728 1.9875696880929574 2.9374815910820247
    endloop
  endfacet
  facet normal 0.04361938736533239 0.9990482215818579 -6.843377764140524e-16
    outer loop
      vertex 1.1809603142307683 1.9484381591431514 0
      vertex 0.4648800879147694 1.979702897022248 3.003061434259685
      vertex 0.55 1.9759864814003176 3.0473720558371173
    endloop
  endfacet
  facet normal 0.04361938736533105 0.9990482215818579 -1.6532535995472068e-15
    outer loop
      vertex 1.1809603142307683 1.9484381591431514 0
      vertex 0.2847009496127728 1.9875696880929574 2.9374815910820247
      vertex 0.37622215765823563 1.983573785853567 2.9663381171355008
    endloop
  endfacet
  facet normal 0.04361938736535071 0.999048221581857 3.694799887002431e-15
    outer loop
      vertex 1.1809603142307683 1.9484381591431514 0
      vertex 0.37622215765823563 1.983573785853567 2.9663381171355008
      vertex 0.4648800879147694 1.979702897022248 3.003061434259685
    endloop
  endfacet
  facet normal 0.04361938736533073 0.9990482215818581 -1.0226165499397889e-15
    outer loop
      vertex 1.1809603142307683 1.9484381591431514 0
      vertex 0.55 1.9759864814003176 3.0473720558371173
      vertex 0.6309340799861507 1.9724528231546898 3.098932751282109
    endloop
  endfacet
  facet normal 0.043619387365339546 0.9990482215818577 5.426346288867023e-16
    outer loop
      vertex 1.1809603142307683 1.9484381591431514 0
      vertex 0.6309340799861507 1.9724528231546898 3.098932751282109
      vertex 0.7070663706551933 1.9691288155582942 3.157351112569124
    endloop
  endfacet
  facet normal 0.0436193873653426 0.9990482215818575 1.008987971108045e-15
    outer loop
      vertex 1.1809603142307683 1.9484381591431514 0
      vertex 0.7070663706551933 1.9691288155582942 3.157351112569124
      vertex 0.7778174593052024 1.9660397563160306 3.2221825406947975
    endloop
  endfacet
  facet normal 0.04361938736533764 0.9990482215818577 3.82310317935928e-16
    outer loop
      vertex 1.1809603142307683 1.9484381591431514 0
      vertex 0.7778174593052024 1.9660397563160306 3.2221825406947975
      vertex 0.8426488874308758 1.963209155033958 3.2929336293448066
    endloop
  endfacet
  facet normal 0.0436193873653178 0.9990482215818586 -1.6601613499145138e-15
    outer loop
      vertex 1.1809603142307683 1.9484381591431514 0
      vertex 0.8426488874308758 1.963209155033958 3.2929336293448066
      vertex 0.901067248717891 1.960658554296998 3.369065920013849
    endloop
  endfacet
  facet normal 0.04361938736535698 0.9990482215818568 1.5994574743896079e-15
    outer loop
      vertex 1.1809603142307683 1.9484381591431514 0
      vertex 0.901067248717891 1.960658554296998 3.369065920013849
      vertex 0.9526279441628825 1.95840736571685 3.45
    endloop
  endfacet
  facet normal 0.04361938736533018 0.999048221581858 -1.7783382399728568e-16
    outer loop
      vertex 1.1809603142307683 1.9484381591431514 0
      vertex 0.9526279441628825 1.95840736571685 3.45
      vertex 0.996938565740315 1.9564727221979172 3.5351199120852304
    endloop
  endfacet
  facet normal 0.04361938736530504 0.9990482215818591 -1.4868395082555181e-15
    outer loop
      vertex 1.1809603142307683 1.9484381591431514 0
      vertex 0.996938565740315 1.9564727221979172 3.5351199120852304
      vertex 1.0336618828644994 1.9548693475455483 3.6237778423417644
    endloop
  endfacet
  facet normal 0.043619387365383254 0.9990482215818558 1.6988085771801867e-15
    outer loop
      vertex 1.1809603142307683 1.9484381591431514 0
      vertex 1.0336618828644994 1.9548693475455483 3.6237778423417644
      vertex 1.0625184089179753 1.953609444408988 3.715299050387227
    endloop
  endfacet
  facet normal 0.04361938736529208 0.9990482215818597 -1.2149677430431843e-15
    outer loop
      vertex 1.1809603142307683 1.9484381591431514 0
      vertex 1.0625184089179753 1.953609444408988 3.715299050387227
      vertex 1.0832885283134288 1.9527026014118611 3.8089870045663767
    endloop
  endfacet
  facet normal 0.04361938736541211 0.9990482215818545 1.8698472745015727e-15
    outer loop
      vertex 1.1809603142307683 1.9484381591431514 0
      vertex 1.0832885283134288 1.9527026014118611 3.8089870045663767
      vertex 1.0958141679009201 1.952155720176938 3.904128682977576
    endloop
  endfacet
  facet normal 0.04361938736507313 0.9990482215818693 -5.537385976996206e-15
    outer loop
      vertex 1.1809603142307683 1.9484381591431514 0
      vertex 1.0958141679009201 1.952155720176938 3.904128682977576
      vertex 1.1 1.951972962800637 4
    endloop
  endfacet
  facet normal 0.043619387365346214 0.9990482215818574 0
    outer loop
      vertex 1.1809603142307683 1.9484381591431514 0
      vertex 1.1 1.951972962800637 4
      vertex 1.1809603142307683 1.9484381591431514 7
    endloop
  endfacet
  facet normal 0.13052619222005202 0.9914448613738103 0
    outer loop
      vertex 1.1809603142307683 1.9484381591431514 0
      vertex 1.1809603142307683 1.9484381591431514 7
      vertex 2.3529328073869062 1.7941450533154182 0
    endloop
  endfacet
  facet normal 0.3007057995042738 0.9537169507482267 0
    outer loop
      vertex 3.5069980611391562 1.538294946216876 0
      vertex 3.5069980611391562 1.538294946216876 7
      vertex 4 1.382852031979061 0
    endloop
  endfacet
  facet normal 0.2164396139381015 0.9762960071199336 0
    outer loop
      vertex 2.3529328073869062 1.7941450533154182 0
      vertex 2.3529328073869062 1.7941450533154182 7
      vertex 3.5069980611391562 1.538294946216876 0
    endloop
  endfacet
  facet normal 0.04361938736509923 0.9990482215818681 6.679988740088583e-15
    outer loop
      vertex 1.1809603142307683 1.9484381591431514 7
      vertex 1.1 1.951972962800637 4
      vertex 1.0958141679009201 1.952155720176938 4.095871317022424
    endloop
  endfacet
  facet normal 0.04361938736540814 0.9990482215818546 -2.3962547605873316e-15
    outer loop
      vertex 1.1809603142307683 1.9484381591431514 7
      vertex 1.0958141679009201 1.952155720176938 4.095871317022424
      vertex 1.0832885283134288 1.9527026014118611 4.191012995433623
    endloop
  endfacet
  facet normal 0.04361938736532731 0.9990482215818582 0
    outer loop
      vertex 0 2 7
      vertex 0.09587131702242399 1.995814167900921 5.095814167900921
      vertex 0 2 5.1
    endloop
  endfacet
  facet normal 0.04361938736534762 0.9990482215818572 1.0249819369480837e-15
    outer loop
      vertex 0 2 7
      vertex 0.19101299543362338 1.9916601925115884 5.083288528313429
      vertex 0.09587131702242399 1.995814167900921 5.095814167900921
    endloop
  endfacet
  facet normal 0.04361938736533461 0.9990482215818578 -2.7390464520931224e-16
    outer loop
      vertex 0 2 7
      vertex 0.2847009496127728 1.9875696880929574 5.062518408917976
      vertex 0.19101299543362338 1.9916601925115884 5.083288528313429
    endloop
  endfacet
  facet normal 0.04361938736533098 0.9990482215818579 1.4465136101249647e-15
    outer loop
      vertex 1.1809603142307683 1.9484381591431514 7
      vertex 0.6309340799861507 1.9724528231546898 4.901067248717891
      vertex 0.55 1.9759864814003176 4.952627944162883
    endloop
  endfacet
  facet normal 0.043619387365342245 0.9990482215818576 -1.3946020135808511e-15
    outer loop
      vertex 1.1809603142307683 1.9484381591431514 7
      vertex 0.7778174593052024 1.9660397563160306 4.7778174593052025
      vertex 0.7070663706551933 1.9691288155582942 4.842648887430876
    endloop
  endfacet
  facet normal 0.04361938736533938 0.9990482215818576 -7.620093631348545e-16
    outer loop
      vertex 1.1809603142307683 1.9484381591431514 7
      vertex 0.7070663706551933 1.9691288155582942 4.842648887430876
      vertex 0.6309340799861507 1.9724528231546898 4.901067248717891
    endloop
  endfacet
  facet normal 0.04361938736529377 0.9990482215818597 1.588710482382302e-15
    outer loop
      vertex 1.1809603142307683 1.9484381591431514 7
      vertex 1.0832885283134288 1.9527026014118611 4.191012995433623
      vertex 1.0625184089179753 1.953609444408988 4.284700949612773
    endloop
  endfacet
  facet normal 0.04361938736538154 0.9990482215818557 -2.2474253339555757e-15
    outer loop
      vertex 1.1809603142307683 1.9484381591431514 7
      vertex 1.0625184089179753 1.953609444408988 4.284700949612773
      vertex 1.0336618828644994 1.9548693475455483 4.376222157658235
    endloop
  endfacet
  facet normal 0.043619387365306225 0.999048221581859 1.9866854256989043e-15
    outer loop
      vertex 1.1809603142307683 1.9484381591431514 7
      vertex 1.0336618828644994 1.9548693475455483 4.376222157658235
      vertex 0.996938565740315 1.9564727221979172 4.46488008791477
    endloop
  endfacet
  facet normal 0.04361938736533029 0.999048221581858 2.3789128297334146e-16
    outer loop
      vertex 1.1809603142307683 1.9484381591431514 7
      vertex 0.996938565740315 1.9564727221979172 4.46488008791477
      vertex 0.9526279441628825 1.95840736571685 4.55
    endloop
  endfacet
  facet normal 0.043619387365337464 0.9990482215818577 -5.261234974022173e-16
    outer loop
      vertex 1.1809603142307683 1.9484381591431514 7
      vertex 0.8426488874308758 1.963209155033958 4.707066370655193
      vertex 0.7778174593052024 1.9660397563160306 4.7778174593052025
    endloop
  endfacet
  facet normal 0.043619387365356074 0.9990482215818569 -2.1691334743394583e-15
    outer loop
      vertex 1.1809603142307683 1.9484381591431514 7
      vertex 0.9526279441628825 1.95840736571685 4.55
      vertex 0.901067248717891 1.960658554296998 4.630934079986151
    endloop
  endfacet
  facet normal 0.04361938736531859 0.9990482215818585 2.269243862250165e-15
    outer loop
      vertex 1.1809603142307683 1.9484381591431514 7
      vertex 0.901067248717891 1.960658554296998 4.630934079986151
      vertex 0.8426488874308758 1.963209155033958 4.707066370655193
    endloop
  endfacet
  facet normal 0.04361938736533255 0.9990482215818579 9.749365073435516e-16
    outer loop
      vertex 1.1809603142307683 1.9484381591431514 7
      vertex 0.55 1.9759864814003176 4.952627944162883
      vertex 0.4648800879147694 1.979702897022248 4.996938565740315
    endloop
  endfacet
  facet normal 0.04361938736533126 0.999048221581858 2.3849671925125085e-15
    outer loop
      vertex 1.1809603142307683 1.9484381591431514 7
      vertex 0.37622215765823563 1.983573785853567 5.033661882864499
      vertex 0.2847009496127728 1.9875696880929574 5.062518408917976
    endloop
  endfacet
  facet normal 0.043619387365350024 0.9990482215818572 -5.303838021429774e-15
    outer loop
      vertex 1.1809603142307683 1.9484381591431514 7
      vertex 0.4648800879147694 1.979702897022248 4.996938565740315
      vertex 0.37622215765823563 1.983573785853567 5.033661882864499
    endloop
  endfacet
  facet normal 0.13052619222005202 0.9914448613738103 0
    outer loop
      vertex 2.3529328073869062 1.7941450533154182 0
      vertex 1.1809603142307683 1.9484381591431514 7
      vertex 2.3529328073869062 1.7941450533154182 7
    endloop
  endfacet
  facet normal 0.04361938736533645 0.9990482215818578 -5.223552087986424e-18
    outer loop
      vertex 0 2 7
      vertex 1.1809603142307683 1.9484381591431514 7
      vertex 0.2847009496127728 1.9875696880929574 5.062518408917976
    endloop
  endfacet
  facet normal 0.2164396139381015 0.9762960071199336 0
    outer loop
      vertex 3.5069980611391562 1.538294946216876 0
      vertex 2.3529328073869062 1.7941450533154182 7
      vertex 3.5069980611391562 1.538294946216876 7
    endloop
  endfacet
  facet normal 0.3007057995042738 0.9537169507482267 0
    outer loop
      vertex 4 1.382852031979061 0
      vertex 3.5069980611391562 1.538294946216876 7
      vertex 4 1.382852031979061 7
    endloop
  endfacet
  facet normal 0.04361938736533611 -0.9990482215818578 -8.965755677687924e-21
    outer loop
      vertex -0.45807531096861304 -0.019999999999999574 0
      vertex 0 0 0
      vertex 0 0 7
    endloop
  endfacet
  facet normal 0.04361938736533611 -0.9990482215818578 0
    outer loop
      vertex -0.45807531096861304 -0.019999999999999574 0
      vertex 0 0 7
      vertex -0.45807531096861304 -0.019999999999999574 7
    endloop
  endfacet
  facet normal -0.04361938736533611 -0.9990482215818578 0
    outer loop
      vertex 0.45807531096861304 -0.019999999999999574 0
      vertex 0.45807531096861304 -0.019999999999999574 7
      vertex 0 0 0
    endloop
  endfacet
  facet normal -0.04361938736533611 -0.9990482215818578 0
    outer loop
      vertex 0 0 0
      vertex 0.45807531096861304 -0.019999999999999574 7
      vertex 0 0 7
    endloop
  endfacet
  facet normal -1 0 0
    outer loop
      vertex -4 -0.019999999999999574 0
      vertex -4 1.382852031979061 7
      vertex -4 1.382852031979061 0
    endloop
  endfacet
  facet normal 0 -1 0
    outer loop
      vertex -4 -0.019999999999999574 0
      vertex -0.45807531096861304 -0.019999999999999574 0
      vertex -0.45807531096861304 -0.019999999999999574 7
    endloop
  endfacet
  facet normal 0 -1 0
    outer loop
      vertex -4 -0.019999999999999574 0
      vertex -0.45807531096861304 -0.019999999999999574 7
      vertex -4 -0.019999999999999574 7
    endloop
  endfacet
  facet normal -1 0 0
    outer loop
      vertex -4 -0.019999999999999574 0
      vertex -4 -0.019999999999999574 7
      vertex -4 1.382852031979061 7
    endloop
  endfacet
  facet normal 0 -1 0
    outer loop
      vertex 0.45807531096861304 -0.019999999999999574 0
      vertex 4 -0.019999999999999574 0
      vertex 4 -0.019999999999999574 7
    endloop
  endfacet
  facet normal 1 0 0
    outer loop
      vertex 4 -0.019999999999999574 0
      vertex 4 1.382852031979061 0
      vertex 4 -0.019999999999999574 7
    endloop
  endfacet
  facet normal 0 -1 0
    outer loop
      vertex 0.45807531096861304 -0.019999999999999574 0
      vertex 4 -0.019999999999999574 7
      vertex 0.45807531096861304 -0.019999999999999574 7
    endloop
  endfacet
  facet normal 1 0 0
    outer loop
      vertex 4 -0.019999999999999574 7
      vertex 4 1.382852031979061 0
      vertex 4 1.382852031979061 7
    endloop
  endfacet
  facet normal 0 0 -1
    outer loop
      vertex -4.75 -0.34999999999999964 7
      vertex -4 -0.019999999999999574 7
      vertex -0.45807531096861304 -0.019999999999999574 7
    endloop
  endfacet
  facet normal 0 0 -1
    outer loop
      vertex -4.75 -0.34999999999999964 7
      vertex -4 1.382852031979061 7
      vertex -4 -0.019999999999999574 7
    endloop
  endfacet
  facet normal -1 0 0
    outer loop
      vertex -4.75 -0.34999999999999964 7
      vertex -4.75 -0.34999999999999964 8.2
      vertex -4.75 2.3500000000000014 8.2
    endloop
  endfacet
  facet normal 0 0 -1
    outer loop
      vertex -4.75 -0.34999999999999964 7
      vertex -0.45807531096861304 -0.019999999999999574 7
      vertex 0 0 7
    endloop
  endfacet
  facet normal 0 0 -1
    outer loop
      vertex -4.75 -0.34999999999999964 7
      vertex 0 0 7
      vertex 0.45807531096861304 -0.019999999999999574 7
    endloop
  endfacet
  facet normal 0 -1 0
    outer loop
      vertex -4.75 -0.34999999999999964 7
      vertex 4.75 -0.34999999999999964 8.2
      vertex -4.75 -0.34999999999999964 8.2
    endloop
  endfacet
  facet normal 0 0 1
    outer loop
      vertex -4.75 -0.34999999999999964 8.2
      vertex 4.75 -0.34999999999999964 8.2
      vertex -4.75 2.3500000000000014 8.2
    endloop
  endfacet
  facet normal 0 0 -1
    outer loop
      vertex -4.75 -0.34999999999999964 7
      vertex -4.75 2.3500000000000014 7
      vertex -4 1.382852031979061 7
    endloop
  endfacet
  facet normal -1 0 0
    outer loop
      vertex -4.75 -0.34999999999999964 7
      vertex -4.75 2.3500000000000014 8.2
      vertex -4.75 2.3500000000000014 7
    endloop
  endfacet
  facet normal 0 0 -1
    outer loop
      vertex -4 1.382852031979061 7
      vertex -4.75 2.3500000000000014 7
      vertex -3.5069980611391562 1.538294946216876 7
    endloop
  endfacet
  facet normal 0 0 -1
    outer loop
      vertex -3.5069980611391562 1.538294946216876 7
      vertex -4.75 2.3500000000000014 7
      vertex -2.3529328073869062 1.7941450533154182 7
    endloop
  endfacet
  facet normal 0 0 -1
    outer loop
      vertex -4.75 2.3500000000000014 7
      vertex -1.1809603142307683 1.9484381591431514 7
      vertex -2.3529328073869062 1.7941450533154182 7
    endloop
  endfacet
  facet normal 0 1 0
    outer loop
      vertex -4.75 2.3500000000000014 7
      vertex -4.75 2.3500000000000014 8.2
      vertex 4.75 2.3500000000000014 7
    endloop
  endfacet
  facet normal 0 0 -1
    outer loop
      vertex -4.75 2.3500000000000014 7
      vertex 4.75 2.3500000000000014 7
      vertex -1.1809603142307683 1.9484381591431514 7
    endloop
  endfacet
  facet normal 0 0 -1
    outer loop
      vertex -4.75 -0.34999999999999964 7
      vertex 0.45807531096861304 -0.019999999999999574 7
      vertex 4.75 -0.34999999999999964 7
    endloop
  endfacet
  facet normal 0 -1 0
    outer loop
      vertex -4.75 -0.34999999999999964 7
      vertex 4.75 -0.34999999999999964 7
      vertex 4.75 -0.34999999999999964 8.2
    endloop
  endfacet
  facet normal 0 0 -1
    outer loop
      vertex 0.45807531096861304 -0.019999999999999574 7
      vertex 4 -0.019999999999999574 7
      vertex 4.75 -0.34999999999999964 7
    endloop
  endfacet
  facet normal 0 0 -1
    outer loop
      vertex 4 -0.019999999999999574 7
      vertex 4 1.382852031979061 7
      vertex 4.75 -0.34999999999999964 7
    endloop
  endfacet
  facet normal 1 0 0
    outer loop
      vertex 4.75 -0.34999999999999964 7
      vertex 4.75 2.3500000000000014 7
      vertex 4.75 -0.34999999999999964 8.2
    endloop
  endfacet
  facet normal 0 0 1
    outer loop
      vertex -4.75 2.3500000000000014 8.2
      vertex 4.75 -0.34999999999999964 8.2
      vertex 4.75 2.3500000000000014 8.2
    endloop
  endfacet
  facet normal 0 0 -1
    outer loop
      vertex -1.1809603142307683 1.9484381591431514 7
      vertex 4.75 2.3500000000000014 7
      vertex 0 2 7
    endloop
  endfacet
  facet normal 0 0 -1
    outer loop
      vertex 0 2 7
      vertex 4.75 2.3500000000000014 7
      vertex 1.1809603142307683 1.9484381591431514 7
    endloop
  endfacet
  facet normal 0 1 0
    outer loop
      vertex -4.75 2.3500000000000014 8.2
      vertex 4.75 2.3500000000000014 8.2
      vertex 4.75 2.3500000000000014 7
    endloop
  endfacet
  facet normal 0 0 -1
    outer loop
      vertex 4.75 -0.34999999999999964 7
      vertex 4 1.382852031979061 7
      vertex 4.75 2.3500000000000014 7
    endloop
  endfacet
  facet normal 1 0 0
    outer loop
      vertex 4.75 -0.34999999999999964 8.2
      vertex 4.75 2.3500000000000014 7
      vertex 4.75 2.3500000000000014 8.2
    endloop
  endfacet
  facet normal 0 0 -1
    outer loop
      vertex 2.3529328073869062 1.7941450533154182 7
      vertex 4.75 2.3500000000000014 7
      vertex 3.5069980611391562 1.538294946216876 7
    endloop
  endfacet
  facet normal 0 0 -1
    outer loop
      vertex 1.1809603142307683 1.9484381591431514 7
      vertex 4.75 2.3500000000000014 7
      vertex 2.3529328073869062 1.7941450533154182 7
    endloop
  endfacet
  facet normal 0 0 -1
    outer loop
      vertex 3.5069980611391562 1.538294946216876 7
      vertex 4.75 2.3500000000000014 7
      vertex 4 1.382852031979061 7
    endloop
  endfacet
  facet normal 0 1 0
    outer loop
      vertex -0.4648800879147694 1.299999999999999 3.003061434259685
      vertex -0.55 1.299999999999999 3.0473720558371173
      vertex 0.55 1.299999999999999 3.0473720558371173
    endloop
  endfacet
  facet normal 0 1 0
    outer loop
      vertex -0.2847009496127728 1.299999999999999 2.9374815910820247
      vertex 0.2847009496127728 1.299999999999999 2.9374815910820247
      vertex -0.19101299543362338 1.299999999999999 2.916711471686571
    endloop
  endfacet
  facet normal 0 1 0
    outer loop
      vertex -0.19101299543362338 1.299999999999999 2.916711471686571
      vertex 0.19101299543362338 1.299999999999999 2.916711471686571
      vertex -0.09587131702242399 1.299999999999999 2.90418583209908
    endloop
  endfacet
  facet normal 0 1 0
    outer loop
      vertex -0.4648800879147694 1.299999999999999 3.003061434259685
      vertex 0.4648800879147694 1.299999999999999 3.003061434259685
      vertex -0.37622215765823563 1.299999999999999 2.9663381171355008
    endloop
  endfacet
  facet normal 0 1 0
    outer loop
      vertex -0.37622215765823563 1.299999999999999 2.9663381171355008
      vertex 0.37622215765823563 1.299999999999999 2.9663381171355008
      vertex -0.2847009496127728 1.299999999999999 2.9374815910820247
    endloop
  endfacet
  facet normal 0 1 0
    outer loop
      vertex -0.901067248717891 1.299999999999999 3.369065920013849
      vertex -0.9526279441628825 1.299999999999999 3.45
      vertex 0.9526279441628825 1.299999999999999 3.45
    endloop
  endfacet
  facet normal 0 1 0
    outer loop
      vertex -0.996938565740315 1.299999999999999 3.5351199120852304
      vertex 0.996938565740315 1.299999999999999 3.5351199120852304
      vertex -0.9526279441628825 1.299999999999999 3.45
    endloop
  endfacet
  facet normal 0 1 0
    outer loop
      vertex -0.7070663706551933 1.299999999999999 3.157351112569124
      vertex -0.7778174593052024 1.299999999999999 3.2221825406947975
      vertex 0.7778174593052024 1.299999999999999 3.2221825406947975
    endloop
  endfacet
  facet normal 0 1 0
    outer loop
      vertex -0.7070663706551933 1.299999999999999 3.157351112569124
      vertex 0.7070663706551933 1.299999999999999 3.157351112569124
      vertex -0.6309340799861507 1.299999999999999 3.098932751282109
    endloop
  endfacet
  facet normal 0 1 0
    outer loop
      vertex -0.6309340799861507 1.299999999999999 3.098932751282109
      vertex 0.6309340799861507 1.299999999999999 3.098932751282109
      vertex -0.55 1.299999999999999 3.0473720558371173
    endloop
  endfacet
  facet normal 0 1 0
    outer loop
      vertex -0.8426488874308758 1.299999999999999 3.2929336293448066
      vertex 0.8426488874308758 1.299999999999999 3.2929336293448066
      vertex -0.7778174593052024 1.299999999999999 3.2221825406947975
    endloop
  endfacet
  facet normal 0 1 0
    outer loop
      vertex -0.8426488874308758 1.299999999999999 3.2929336293448066
      vertex -0.901067248717891 1.299999999999999 3.369065920013849
      vertex 0.901067248717891 1.299999999999999 3.369065920013849
    endloop
  endfacet
  facet normal 0 1 0
    outer loop
      vertex -0.996938565740315 1.299999999999999 3.5351199120852304
      vertex -1.0336618828644994 1.299999999999999 3.6237778423417644
      vertex 1.0336618828644994 1.299999999999999 3.6237778423417644
    endloop
  endfacet
  facet normal 0 1 0
    outer loop
      vertex -1.0336618828644994 1.299999999999999 3.6237778423417644
      vertex -1.0625184089179753 1.299999999999999 3.715299050387227
      vertex 1.0625184089179753 1.299999999999999 3.715299050387227
    endloop
  endfacet
  facet normal 0 1 0
    outer loop
      vertex -1.0625184089179753 1.299999999999999 3.715299050387227
      vertex -1.0832885283134288 1.299999999999999 3.8089870045663767
      vertex 1.0832885283134288 1.299999999999999 3.8089870045663767
    endloop
  endfacet
  facet normal 0 1 0
    outer loop
      vertex -1.0832885283134288 1.299999999999999 3.8089870045663767
      vertex -1.0958141679009201 1.299999999999999 3.904128682977576
      vertex 1.0958141679009201 1.299999999999999 3.904128682977576
    endloop
  endfacet
  facet normal 0 1 0
    outer loop
      vertex -1.0958141679009201 1.299999999999999 3.904128682977576
      vertex -1.1 1.299999999999999 4
      vertex 1.1 1.299999999999999 4
    endloop
  endfacet
  facet normal 0 1 0
    outer loop
      vertex -1.1 1.299999999999999 4
      vertex -1.0958141679009201 1.299999999999999 4.095871317022424
      vertex 1.0958141679009201 1.299999999999999 4.095871317022424
    endloop
  endfacet
  facet normal 0.5372996083468249 1.985507511787535e-18 0.843391445812885
    outer loop
      vertex -0.6309340799861507 1.299999999999999 3.098932751282109
      vertex -0.55 1.299999999999999 3.0473720558371173
      vertex -0.55 1.9759864814003176 3.0473720558371173
    endloop
  endfacet
  facet normal 0.4617486132350343 0 0.8870108331782217
    outer loop
      vertex -0.4648800879147694 1.299999999999999 3.003061434259685
      vertex -0.4648800879147694 1.979702897022248 3.003061434259685
      vertex -0.55 1.299999999999999 3.0473720558371173
    endloop
  endfacet
  facet normal 0.38268343236508806 1.7721230058991804e-18 0.9238795325112874
    outer loop
      vertex -0.4648800879147694 1.299999999999999 3.003061434259685
      vertex -0.37622215765823563 1.299999999999999 2.9663381171355008
      vertex -0.37622215765823563 1.983573785853567 2.9663381171355008
    endloop
  endfacet
  facet normal 0.30070579950427506 -2.7434349357098194e-18 0.9537169507482265
    outer loop
      vertex -0.37622215765823563 1.299999999999999 2.9663381171355008
      vertex -0.2847009496127728 1.299999999999999 2.9374815910820247
      vertex -0.2847009496127728 1.9875696880929574 2.9374815910820247
    endloop
  endfacet
  facet normal 0.21643961393810243 4.718372269120614e-19 0.9762960071199335
    outer loop
      vertex -0.2847009496127728 1.299999999999999 2.9374815910820247
      vertex -0.19101299543362338 1.299999999999999 2.916711471686571
      vertex -0.19101299543362338 1.9916601925115884 2.916711471686571
    endloop
  endfacet
  facet normal 0.13052619222005024 -1.1322740643575087e-19 0.9914448613738106
    outer loop
      vertex -0.19101299543362338 1.299999999999999 2.916711471686571
      vertex -0.09587131702242399 1.299999999999999 2.90418583209908
      vertex -0.09587131702242399 1.995814167900921 2.90418583209908
    endloop
  endfacet
  facet normal 0.04361938736533655 6.3107939237217876e-21 0.9990482215818578
    outer loop
      vertex -0.09587131702242399 1.299999999999999 2.90418583209908
      vertex 0 1.299999999999999 2.9
      vertex 0 2 2.9
    endloop
  endfacet
  facet normal 0.8433914458128869 0 0.5372996083468219
    outer loop
      vertex -0.901067248717891 1.299999999999999 3.369065920013849
      vertex -0.901067248717891 1.960658554296998 3.369065920013849
      vertex -0.9526279441628825 1.299999999999999 3.45
    endloop
  endfacet
  facet normal 0.8870108331782206 2.7865261315017957e-18 0.46174861323503613
    outer loop
      vertex -0.996938565740315 1.299999999999999 3.5351199120852304
      vertex -0.9526279441628825 1.299999999999999 3.45
      vertex -0.9526279441628825 1.95840736571685 3.45
    endloop
  endfacet
  facet normal 0.9238795325112865 0 0.3826834323650903
    outer loop
      vertex -0.996938565740315 1.299999999999999 3.5351199120852304
      vertex -0.996938565740315 1.9564727221979172 3.5351199120852304
      vertex -1.0336618828644994 1.299999999999999 3.6237778423417644
    endloop
  endfacet
  facet normal 0.7933533402912347 0 0.6087614290087213
    outer loop
      vertex -0.8426488874308758 1.299999999999999 3.2929336293448066
      vertex -0.8426488874308758 1.963209155033958 3.2929336293448066
      vertex -0.901067248717891 1.299999999999999 3.369065920013849
    endloop
  endfacet
  facet normal 0.7372773368101252 -5.06055633020868e-18 0.675590207615659
    outer loop
      vertex -0.8426488874308758 1.299999999999999 3.2929336293448066
      vertex -0.7778174593052024 1.299999999999999 3.2221825406947975
      vertex -0.7778174593052024 1.9660397563160306 3.2221825406947975
    endloop
  endfacet
  facet normal 0.675590207615659 0 0.7372773368101252
    outer loop
      vertex -0.7070663706551933 1.299999999999999 3.157351112569124
      vertex -0.7070663706551933 1.9691288155582942 3.157351112569124
      vertex -0.7778174593052024 1.299999999999999 3.2221825406947975
    endloop
  endfacet
  facet normal 0.6087614290087199 5.592907438056817e-18 0.7933533402912357
    outer loop
      vertex -0.7070663706551933 1.299999999999999 3.157351112569124
      vertex -0.6309340799861507 1.299999999999999 3.098932751282109
      vertex -0.6309340799861507 1.9724528231546898 3.098932751282109
    endloop
  endfacet
  facet normal 0.953716950748227 0 0.3007057995042729
    outer loop
      vertex -1.0336618828644994 1.299999999999999 3.6237778423417644
      vertex -1.0336618828644994 1.9548693475455483 3.6237778423417644
      vertex -1.0625184089179753 1.299999999999999 3.715299050387227
    endloop
  endfacet
  facet normal 0.976296007119934 0 0.2164396139381
    outer loop
      vertex -1.0625184089179753 1.299999999999999 3.715299050387227
      vertex -1.0625184089179753 1.953609444408988 3.715299050387227
      vertex -1.0832885283134288 1.299999999999999 3.8089870045663767
    endloop
  endfacet
  facet normal 0.9914448613738102 0 0.13052619222005285
    outer loop
      vertex -1.0832885283134288 1.299999999999999 3.8089870045663767
      vertex -1.0832885283134288 1.9527026014118611 3.8089870045663767
      vertex -1.0958141679009201 1.299999999999999 3.904128682977576
    endloop
  endfacet
  facet normal 0.9990482215818578 0 0.043619387365336486
    outer loop
      vertex -1.0958141679009201 1.299999999999999 3.904128682977576
      vertex -1.0958141679009201 1.952155720176938 3.904128682977576
      vertex -1.1 1.299999999999999 4
    endloop
  endfacet
  facet normal 0.9990482215818578 0 -0.04361938736533648
    outer loop
      vertex -1.1 1.299999999999999 4
      vertex -1.1 1.951972962800637 4
      vertex -1.0958141679009201 1.299999999999999 4.095871317022424
    endloop
  endfacet
  facet normal 0.4617486132350342 0 0.8870108331782215
    outer loop
      vertex -0.55 1.299999999999999 3.0473720558371173
      vertex -0.4648800879147694 1.979702897022248 3.003061434259685
      vertex -0.55 1.9759864814003176 3.0473720558371173
    endloop
  endfacet
  facet normal 0.38268343236508806 0 0.9238795325112873
    outer loop
      vertex -0.4648800879147694 1.299999999999999 3.003061434259685
      vertex -0.37622215765823563 1.983573785853567 2.9663381171355008
      vertex -0.4648800879147694 1.979702897022248 3.003061434259685
    endloop
  endfacet
  facet normal 0.30070579950427495 0 0.9537169507482264
    outer loop
      vertex -0.37622215765823563 1.299999999999999 2.9663381171355008
      vertex -0.2847009496127728 1.9875696880929574 2.9374815910820247
      vertex -0.37622215765823563 1.983573785853567 2.9663381171355008
    endloop
  endfacet
  facet normal 0.21643961393810243 0 0.9762960071199334
    outer loop
      vertex -0.2847009496127728 1.299999999999999 2.9374815910820247
      vertex -0.19101299543362338 1.9916601925115884 2.916711471686571
      vertex -0.2847009496127728 1.9875696880929574 2.9374815910820247
    endloop
  endfacet
  facet normal 0.13052619222005024 0 0.9914448613738105
    outer loop
      vertex -0.19101299543362338 1.299999999999999 2.916711471686571
      vertex -0.09587131702242399 1.995814167900921 2.90418583209908
      vertex -0.19101299543362338 1.9916601925115884 2.916711471686571
    endloop
  endfacet
  facet normal 0.04361938736533654 0 0.9990482215818577
    outer loop
      vertex -0.09587131702242399 1.299999999999999 2.90418583209908
      vertex 0 2 2.9
      vertex -0.09587131702242399 1.995814167900921 2.90418583209908
    endloop
  endfacet
  facet normal 0.8433914458128869 0 0.537299608346822
    outer loop
      vertex -0.9526279441628825 1.299999999999999 3.45
      vertex -0.901067248717891 1.960658554296998 3.369065920013849
      vertex -0.9526279441628825 1.95840736571685 3.45
    endloop
  endfacet
  facet normal 0.8870108331782205 0 0.46174861323503613
    outer loop
      vertex -0.996938565740315 1.299999999999999 3.5351199120852304
      vertex -0.9526279441628825 1.95840736571685 3.45
      vertex -0.996938565740315 1.9564727221979172 3.5351199120852304
    endloop
  endfacet
  facet normal 0.675590207615659 0 0.7372773368101252
    outer loop
      vertex -0.7778174593052024 1.299999999999999 3.2221825406947975
      vertex -0.7070663706551933 1.9691288155582942 3.157351112569124
      vertex -0.7778174593052024 1.9660397563160306 3.2221825406947975
    endloop
  endfacet
  facet normal 0.7372773368101252 0 0.675590207615659
    outer loop
      vertex -0.8426488874308758 1.299999999999999 3.2929336293448066
      vertex -0.7778174593052024 1.9660397563160306 3.2221825406947975
      vertex -0.8426488874308758 1.963209155033958 3.2929336293448066
    endloop
  endfacet
  facet normal 0.6087614290087199 0 0.7933533402912356
    outer loop
      vertex -0.7070663706551933 1.299999999999999 3.157351112569124
      vertex -0.6309340799861507 1.9724528231546898 3.098932751282109
      vertex -0.7070663706551933 1.9691288155582942 3.157351112569124
    endloop
  endfacet
  facet normal 0.5372996083468247 0 0.843391445812885
    outer loop
      vertex -0.6309340799861507 1.299999999999999 3.098932751282109
      vertex -0.55 1.9759864814003176 3.0473720558371173
      vertex -0.6309340799861507 1.9724528231546898 3.098932751282109
    endloop
  endfacet
  facet normal 0.7933533402912347 0 0.6087614290087212
    outer loop
      vertex -0.901067248717891 1.299999999999999 3.369065920013849
      vertex -0.8426488874308758 1.963209155033958 3.2929336293448066
      vertex -0.901067248717891 1.960658554296998 3.369065920013849
    endloop
  endfacet
  facet normal 0.9537169507482269 0 0.30070579950427284
    outer loop
      vertex -1.0625184089179753 1.299999999999999 3.715299050387227
      vertex -1.0336618828644994 1.9548693475455483 3.6237778423417644
      vertex -1.0625184089179753 1.953609444408988 3.715299050387227
    endloop
  endfacet
  facet normal 0.9762960071199341 0 0.21643961393810002
    outer loop
      vertex -1.0832885283134288 1.299999999999999 3.8089870045663767
      vertex -1.0625184089179753 1.953609444408988 3.715299050387227
      vertex -1.0832885283134288 1.9527026014118611 3.8089870045663767
    endloop
  endfacet
  facet normal 0.9238795325112865 0 0.3826834323650903
    outer loop
      vertex -1.0336618828644994 1.299999999999999 3.6237778423417644
      vertex -0.996938565740315 1.9564727221979172 3.5351199120852304
      vertex -1.0336618828644994 1.9548693475455483 3.6237778423417644
    endloop
  endfacet
  facet normal 0.9914448613738104 0 0.13052619222005288
    outer loop
      vertex -1.0958141679009201 1.299999999999999 3.904128682977576
      vertex -1.0832885283134288 1.9527026014118611 3.8089870045663767
      vertex -1.0958141679009201 1.952155720176938 3.904128682977576
    endloop
  endfacet
  facet normal 0.9990482215818578 0 0.04361938736533648
    outer loop
      vertex -1.1 1.299999999999999 4
      vertex -1.0958141679009201 1.952155720176938 3.904128682977576
      vertex -1.1 1.951972962800637 4
    endloop
  endfacet
  facet normal 0.9990482215818578 0 -0.043619387365336486
    outer loop
      vertex -1.0958141679009201 1.299999999999999 4.095871317022424
      vertex -1.1 1.951972962800637 4
      vertex -1.0958141679009201 1.952155720176938 4.095871317022424
    endloop
  endfacet
  facet normal 0 1 0
    outer loop
      vertex -1.0958141679009201 1.299999999999999 4.095871317022424
      vertex -1.0832885283134288 1.299999999999999 4.191012995433623
      vertex 1.0832885283134288 1.299999999999999 4.191012995433623
    endloop
  endfacet
  facet normal 0 1 0
    outer loop
      vertex -1.0832885283134288 1.299999999999999 4.191012995433623
      vertex -1.0625184089179753 1.299999999999999 4.284700949612773
      vertex 1.0625184089179753 1.299999999999999 4.284700949612773
    endloop
  endfacet
  facet normal 0 1 0
    outer loop
      vertex -1.0625184089179753 1.299999999999999 4.284700949612773
      vertex -1.0336618828644994 1.299999999999999 4.376222157658235
      vertex 1.0336618828644994 1.299999999999999 4.376222157658235
    endloop
  endfacet
  facet normal 0 1 0
    outer loop
      vertex -1.0336618828644994 1.299999999999999 4.376222157658235
      vertex -0.996938565740315 1.299999999999999 4.46488008791477
      vertex 0.996938565740315 1.299999999999999 4.46488008791477
    endloop
  endfacet
  facet normal 0 1 0
    outer loop
      vertex -0.996938565740315 1.299999999999999 4.46488008791477
      vertex -0.9526279441628825 1.299999999999999 4.55
      vertex 0.9526279441628825 1.299999999999999 4.55
    endloop
  endfacet
  facet normal 0 1 0
    outer loop
      vertex -0.9526279441628825 1.299999999999999 4.55
      vertex -0.901067248717891 1.299999999999999 4.630934079986151
      vertex 0.901067248717891 1.299999999999999 4.630934079986151
    endloop
  endfacet
  facet normal 0 1 0
    outer loop
      vertex -0.901067248717891 1.299999999999999 4.630934079986151
      vertex -0.8426488874308758 1.299999999999999 4.707066370655193
      vertex 0.8426488874308758 1.299999999999999 4.707066370655193
    endloop
  endfacet
  facet normal 0 1 0
    outer loop
      vertex -0.8426488874308758 1.299999999999999 4.707066370655193
      vertex -0.7778174593052024 1.299999999999999 4.7778174593052025
      vertex 0.7778174593052024 1.299999999999999 4.7778174593052025
    endloop
  endfacet
  facet normal 0 1 0
    outer loop
      vertex -0.7778174593052024 1.299999999999999 4.7778174593052025
      vertex -0.7070663706551933 1.299999999999999 4.842648887430876
      vertex 0.7070663706551933 1.299999999999999 4.842648887430876
    endloop
  endfacet
  facet normal 0 1 0
    outer loop
      vertex -0.7070663706551933 1.299999999999999 4.842648887430876
      vertex -0.6309340799861507 1.299999999999999 4.901067248717891
      vertex 0.6309340799861507 1.299999999999999 4.901067248717891
    endloop
  endfacet
  facet normal 0 1 0
    outer loop
      vertex -0.6309340799861507 1.299999999999999 4.901067248717891
      vertex -0.55 1.299999999999999 4.952627944162883
      vertex 0.55 1.299999999999999 4.952627944162883
    endloop
  endfacet
  facet normal 0 1 0
    outer loop
      vertex -0.55 1.299999999999999 4.952627944162883
      vertex -0.4648800879147694 1.299999999999999 4.996938565740315
      vertex 0.4648800879147694 1.299999999999999 4.996938565740315
    endloop
  endfacet
  facet normal 0 1 0
    outer loop
      vertex -0.4648800879147694 1.299999999999999 4.996938565740315
      vertex -0.37622215765823563 1.299999999999999 5.033661882864499
      vertex 0.37622215765823563 1.299999999999999 5.033661882864499
    endloop
  endfacet
  facet normal 0 1 0
    outer loop
      vertex -0.37622215765823563 1.299999999999999 5.033661882864499
      vertex -0.2847009496127728 1.299999999999999 5.062518408917976
      vertex 0.2847009496127728 1.299999999999999 5.062518408917976
    endloop
  endfacet
  facet normal 0 1 0
    outer loop
      vertex -0.2847009496127728 1.299999999999999 5.062518408917976
      vertex -0.19101299543362338 1.299999999999999 5.083288528313429
      vertex 0.19101299543362338 1.299999999999999 5.083288528313429
    endloop
  endfacet
  facet normal 0 1 0
    outer loop
      vertex -0.19101299543362338 1.299999999999999 5.083288528313429
      vertex -0.09587131702242399 1.299999999999999 5.095814167900921
      vertex 0.09587131702242399 1.299999999999999 5.095814167900921
    endloop
  endfacet
  facet normal 0.9914448613738104 0 -0.13052619222005288
    outer loop
      vertex -1.0958141679009201 1.299999999999999 4.095871317022424
      vertex -1.0958141679009201 1.952155720176938 4.095871317022424
      vertex -1.0832885283134288 1.299999999999999 4.191012995433623
    endloop
  endfacet
  facet normal 0.9762960071199343 0 -0.216439613938099
    outer loop
      vertex -1.0832885283134288 1.299999999999999 4.191012995433623
      vertex -1.0832885283134288 1.9527026014118611 4.191012995433623
      vertex -1.0625184089179753 1.299999999999999 4.284700949612773
    endloop
  endfacet
  facet normal 0.9537169507482262 0 -0.3007057995042755
    outer loop
      vertex -1.0625184089179753 1.299999999999999 4.284700949612773
      vertex -1.0625184089179753 1.953609444408988 4.284700949612773
      vertex -1.0336618828644994 1.299999999999999 4.376222157658235
    endloop
  endfacet
  facet normal 0.9238795325112873 0 -0.38268343236508867
    outer loop
      vertex -1.0336618828644994 1.299999999999999 4.376222157658235
      vertex -1.0336618828644994 1.9548693475455483 4.376222157658235
      vertex -0.996938565740315 1.299999999999999 4.46488008791477
    endloop
  endfacet
  facet normal 0.8870108331782205 0 -0.46174861323503613
    outer loop
      vertex -0.996938565740315 1.299999999999999 4.46488008791477
      vertex -0.996938565740315 1.9564727221979172 4.46488008791477
      vertex -0.9526279441628825 1.299999999999999 4.55
    endloop
  endfacet
  facet normal 0.8433914458128869 0 -0.537299608346822
    outer loop
      vertex -0.9526279441628825 1.299999999999999 4.55
      vertex -0.9526279441628825 1.95840736571685 4.55
      vertex -0.901067248717891 1.299999999999999 4.630934079986151
    endloop
  endfacet
  facet normal 0.793353340291233 0 -0.6087614290087234
    outer loop
      vertex -0.901067248717891 1.299999999999999 4.630934079986151
      vertex -0.901067248717891 1.960658554296998 4.630934079986151
      vertex -0.8426488874308758 1.299999999999999 4.707066370655193
    endloop
  endfacet
  facet normal 0.7372773368101272 0 -0.6755902076156567
    outer loop
      vertex -0.8426488874308758 1.299999999999999 4.707066370655193
      vertex -0.8426488874308758 1.963209155033958 4.707066370655193
      vertex -0.7778174593052024 1.299999999999999 4.7778174593052025
    endloop
  endfacet
  facet normal 0.675590207615659 0 -0.7372773368101252
    outer loop
      vertex -0.7778174593052024 1.299999999999999 4.7778174593052025
      vertex -0.7778174593052024 1.9660397563160306 4.7778174593052025
      vertex -0.7070663706551933 1.299999999999999 4.842648887430876
    endloop
  endfacet
  facet normal 0.6087614290087199 0 -0.7933533402912356
    outer loop
      vertex -0.7070663706551933 1.299999999999999 4.842648887430876
      vertex -0.7070663706551933 1.9691288155582942 4.842648887430876
      vertex -0.6309340799861507 1.299999999999999 4.901067248717891
    endloop
  endfacet
  facet normal 0.5372996083468247 0 -0.843391445812885
    outer loop
      vertex -0.6309340799861507 1.299999999999999 4.901067248717891
      vertex -0.6309340799861507 1.9724528231546898 4.901067248717891
      vertex -0.55 1.299999999999999 4.952627944162883
    endloop
  endfacet
  facet normal 0.4617486132350342 0 -0.8870108331782215
    outer loop
      vertex -0.55 1.299999999999999 4.952627944162883
      vertex -0.55 1.9759864814003176 4.952627944162883
      vertex -0.4648800879147694 1.299999999999999 4.996938565740315
    endloop
  endfacet
  facet normal 0.38268343236508806 0 -0.9238795325112873
    outer loop
      vertex -0.4648800879147694 1.299999999999999 4.996938565740315
      vertex -0.4648800879147694 1.979702897022248 4.996938565740315
      vertex -0.37622215765823563 1.299999999999999 5.033661882864499
    endloop
  endfacet
  facet normal 0.3007057995042791 0 -0.9537169507482249
    outer loop
      vertex -0.37622215765823563 1.299999999999999 5.033661882864499
      vertex -0.37622215765823563 1.983573785853567 5.033661882864499
      vertex -0.2847009496127728 1.299999999999999 5.062518408917976
    endloop
  endfacet
  facet normal 0.21643961393809805 0 -0.9762960071199344
    outer loop
      vertex -0.2847009496127728 1.299999999999999 5.062518408917976
      vertex -0.2847009496127728 1.9875696880929574 5.062518408917976
      vertex -0.19101299543362338 1.299999999999999 5.083288528313429
    endloop
  endfacet
  facet normal 0.1305261922200548 0 -0.9914448613738099
    outer loop
      vertex -0.19101299543362338 1.299999999999999 5.083288528313429
      vertex -0.19101299543362338 1.9916601925115884 5.083288528313429
      vertex -0.09587131702242399 1.299999999999999 5.095814167900921
    endloop
  endfacet
  facet normal 0.04361938736532731 0 -0.9990482215818582
    outer loop
      vertex -0.09587131702242399 1.299999999999999 5.095814167900921
      vertex -0.09587131702242399 1.995814167900921 5.095814167900921
      vertex 0 1.299999999999999 5.1
    endloop
  endfacet
  facet normal 0.9914448613738102 0 -0.13052619222005285
    outer loop
      vertex -1.0832885283134288 1.299999999999999 4.191012995433623
      vertex -1.0958141679009201 1.952155720176938 4.095871317022424
      vertex -1.0832885283134288 1.9527026014118611 4.191012995433623
    endloop
  endfacet
  facet normal 0.9762960071199341 0 -0.216439613938099
    outer loop
      vertex -1.0625184089179753 1.299999999999999 4.284700949612773
      vertex -1.0832885283134288 1.9527026014118611 4.191012995433623
      vertex -1.0625184089179753 1.953609444408988 4.284700949612773
    endloop
  endfacet
  facet normal 0.9537169507482262 0 -0.30070579950427556
    outer loop
      vertex -1.0336618828644994 1.299999999999999 4.376222157658235
      vertex -1.0625184089179753 1.953609444408988 4.284700949612773
      vertex -1.0336618828644994 1.9548693475455483 4.376222157658235
    endloop
  endfacet
  facet normal 0.9238795325112871 0 -0.38268343236508856
    outer loop
      vertex -0.996938565740315 1.299999999999999 4.46488008791477
      vertex -1.0336618828644994 1.9548693475455483 4.376222157658235
      vertex -0.996938565740315 1.9564727221979172 4.46488008791477
    endloop
  endfacet
  facet normal 0.8870108331782206 0 -0.46174861323503613
    outer loop
      vertex -0.9526279441628825 1.299999999999999 4.55
      vertex -0.996938565740315 1.9564727221979172 4.46488008791477
      vertex -0.9526279441628825 1.95840736571685 4.55
    endloop
  endfacet
  facet normal 0.8433914458128869 0 -0.5372996083468219
    outer loop
      vertex -0.901067248717891 1.299999999999999 4.630934079986151
      vertex -0.9526279441628825 1.95840736571685 4.55
      vertex -0.901067248717891 1.960658554296998 4.630934079986151
    endloop
  endfacet
  facet normal 0.7933533402912332 0 -0.6087614290087235
    outer loop
      vertex -0.8426488874308758 1.299999999999999 4.707066370655193
      vertex -0.901067248717891 1.960658554296998 4.630934079986151
      vertex -0.8426488874308758 1.963209155033958 4.707066370655193
    endloop
  endfacet
  facet normal 0.7372773368101273 0 -0.6755902076156567
    outer loop
      vertex -0.7778174593052024 1.299999999999999 4.7778174593052025
      vertex -0.8426488874308758 1.963209155033958 4.707066370655193
      vertex -0.7778174593052024 1.9660397563160306 4.7778174593052025
    endloop
  endfacet
  facet normal 0.675590207615659 0 -0.7372773368101252
    outer loop
      vertex -0.7070663706551933 1.299999999999999 4.842648887430876
      vertex -0.7778174593052024 1.9660397563160306 4.7778174593052025
      vertex -0.7070663706551933 1.9691288155582942 4.842648887430876
    endloop
  endfacet
  facet normal 0.6087614290087199 0 -0.7933533402912357
    outer loop
      vertex -0.6309340799861507 1.299999999999999 4.901067248717891
      vertex -0.7070663706551933 1.9691288155582942 4.842648887430876
      vertex -0.6309340799861507 1.9724528231546898 4.901067248717891
    endloop
  endfacet
  facet normal 0.5372996083468249 0 -0.843391445812885
    outer loop
      vertex -0.55 1.299999999999999 4.952627944162883
      vertex -0.6309340799861507 1.9724528231546898 4.901067248717891
      vertex -0.55 1.9759864814003176 4.952627944162883
    endloop
  endfacet
  facet normal 0.4617486132350343 0 -0.8870108331782217
    outer loop
      vertex -0.4648800879147694 1.299999999999999 4.996938565740315
      vertex -0.55 1.9759864814003176 4.952627944162883
      vertex -0.4648800879147694 1.979702897022248 4.996938565740315
    endloop
  endfacet
  facet normal 0.38268343236508806 0 -0.9238795325112874
    outer loop
      vertex -0.37622215765823563 1.299999999999999 5.033661882864499
      vertex -0.4648800879147694 1.979702897022248 4.996938565740315
      vertex -0.37622215765823563 1.983573785853567 5.033661882864499
    endloop
  endfacet
  facet normal 0.3007057995042792 0 -0.953716950748225
    outer loop
      vertex -0.2847009496127728 1.299999999999999 5.062518408917976
      vertex -0.37622215765823563 1.983573785853567 5.033661882864499
      vertex -0.2847009496127728 1.9875696880929574 5.062518408917976
    endloop
  endfacet
  facet normal 0.21643961393809805 0 -0.9762960071199345
    outer loop
      vertex -0.19101299543362338 1.299999999999999 5.083288528313429
      vertex -0.2847009496127728 1.9875696880929574 5.062518408917976
      vertex -0.19101299543362338 1.9916601925115884 5.083288528313429
    endloop
  endfacet
  facet normal 0.1305261922200548 0 -0.9914448613738099
    outer loop
      vertex -0.09587131702242399 1.299999999999999 5.095814167900921
      vertex -0.19101299543362338 1.9916601925115884 5.083288528313429
      vertex -0.09587131702242399 1.995814167900921 5.095814167900921
    endloop
  endfacet
  facet normal 0.043619387365327306 0 -0.9990482215818582
    outer loop
      vertex 0 1.299999999999999 5.1
      vertex -0.09587131702242399 1.995814167900921 5.095814167900921
      vertex 0 2 5.1
    endloop
  endfacet
  facet normal 0 1 0
    outer loop
      vertex -0.09587131702242399 1.299999999999999 2.90418583209908
      vertex 0.09587131702242399 1.299999999999999 2.90418583209908
      vertex 0 1.299999999999999 2.9
    endloop
  endfacet
  facet normal 0 1 0
    outer loop
      vertex -0.09587131702242399 1.299999999999999 2.90418583209908
      vertex 0.19101299543362338 1.299999999999999 2.916711471686571
      vertex 0.09587131702242399 1.299999999999999 2.90418583209908
    endloop
  endfacet
  facet normal 0 1 0
    outer loop
      vertex -0.19101299543362338 1.299999999999999 2.916711471686571
      vertex 0.2847009496127728 1.299999999999999 2.9374815910820247
      vertex 0.19101299543362338 1.299999999999999 2.916711471686571
    endloop
  endfacet
  facet normal 0 1 0
    outer loop
      vertex -0.2847009496127728 1.299999999999999 2.9374815910820247
      vertex 0.37622215765823563 1.299999999999999 2.9663381171355008
      vertex 0.2847009496127728 1.299999999999999 2.9374815910820247
    endloop
  endfacet
  facet normal 0 1 0
    outer loop
      vertex -0.37622215765823563 1.299999999999999 2.9663381171355008
      vertex 0.4648800879147694 1.299999999999999 3.003061434259685
      vertex 0.37622215765823563 1.299999999999999 2.9663381171355008
    endloop
  endfacet
  facet normal 0 1 0
    outer loop
      vertex -0.4648800879147694 1.299999999999999 3.003061434259685
      vertex 0.55 1.299999999999999 3.0473720558371173
      vertex 0.4648800879147694 1.299999999999999 3.003061434259685
    endloop
  endfacet
  facet normal 0 1 0
    outer loop
      vertex -0.55 1.299999999999999 3.0473720558371173
      vertex 0.6309340799861507 1.299999999999999 3.098932751282109
      vertex 0.55 1.299999999999999 3.0473720558371173
    endloop
  endfacet
  facet normal 0 1 0
    outer loop
      vertex -0.6309340799861507 1.299999999999999 3.098932751282109
      vertex 0.7070663706551933 1.299999999999999 3.157351112569124
      vertex 0.6309340799861507 1.299999999999999 3.098932751282109
    endloop
  endfacet
  facet normal 0 1 0
    outer loop
      vertex -0.7070663706551933 1.299999999999999 3.157351112569124
      vertex 0.7778174593052024 1.299999999999999 3.2221825406947975
      vertex 0.7070663706551933 1.299999999999999 3.157351112569124
    endloop
  endfacet
  facet normal 0 1 0
    outer loop
      vertex -0.7778174593052024 1.299999999999999 3.2221825406947975
      vertex 0.8426488874308758 1.299999999999999 3.2929336293448066
      vertex 0.7778174593052024 1.299999999999999 3.2221825406947975
    endloop
  endfacet
  facet normal 0 1 0
    outer loop
      vertex -0.8426488874308758 1.299999999999999 3.2929336293448066
      vertex 0.901067248717891 1.299999999999999 3.369065920013849
      vertex 0.8426488874308758 1.299999999999999 3.2929336293448066
    endloop
  endfacet
  facet normal 0 1 0
    outer loop
      vertex -0.901067248717891 1.299999999999999 3.369065920013849
      vertex 0.9526279441628825 1.299999999999999 3.45
      vertex 0.901067248717891 1.299999999999999 3.369065920013849
    endloop
  endfacet
  facet normal 0 1 0
    outer loop
      vertex -0.9526279441628825 1.299999999999999 3.45
      vertex 0.996938565740315 1.299999999999999 3.5351199120852304
      vertex 0.9526279441628825 1.299999999999999 3.45
    endloop
  endfacet
  facet normal 0 1 0
    outer loop
      vertex -0.996938565740315 1.299999999999999 3.5351199120852304
      vertex 1.0336618828644994 1.299999999999999 3.6237778423417644
      vertex 0.996938565740315 1.299999999999999 3.5351199120852304
    endloop
  endfacet
  facet normal 0 1 0
    outer loop
      vertex -1.0336618828644994 1.299999999999999 3.6237778423417644
      vertex 1.0625184089179753 1.299999999999999 3.715299050387227
      vertex 1.0336618828644994 1.299999999999999 3.6237778423417644
    endloop
  endfacet
  facet normal 0 1 0
    outer loop
      vertex -1.0625184089179753 1.299999999999999 3.715299050387227
      vertex 1.0832885283134288 1.299999999999999 3.8089870045663767
      vertex 1.0625184089179753 1.299999999999999 3.715299050387227
    endloop
  endfacet
  facet normal 0 1 0
    outer loop
      vertex -1.0832885283134288 1.299999999999999 3.8089870045663767
      vertex 1.0958141679009201 1.299999999999999 3.904128682977576
      vertex 1.0832885283134288 1.299999999999999 3.8089870045663767
    endloop
  endfacet
  facet normal 0 1 0
    outer loop
      vertex -1.0958141679009201 1.299999999999999 3.904128682977576
      vertex 1.1 1.299999999999999 4
      vertex 1.0958141679009201 1.299999999999999 3.904128682977576
    endloop
  endfacet
  facet normal 0 1 0
    outer loop
      vertex -1.1 1.299999999999999 4
      vertex 1.0958141679009201 1.299999999999999 4.095871317022424
      vertex 1.1 1.299999999999999 4
    endloop
  endfacet
  facet normal -0.04361938736533654 -6.348757973600617e-21 0.9990482215818577
    outer loop
      vertex 0 1.299999999999999 2.9
      vertex 0.09587131702242399 1.299999999999999 2.90418583209908
      vertex 0.09587131702242399 1.995814167900921 2.90418583209908
    endloop
  endfacet
  facet normal -0.13052619222005024 1.1390742801979508e-19 0.9914448613738105
    outer loop
      vertex 0.09587131702242399 1.299999999999999 2.90418583209908
      vertex 0.19101299543362338 1.299999999999999 2.916711471686571
      vertex 0.19101299543362338 1.9916601925115884 2.916711471686571
    endloop
  endfacet
  facet normal -0.21643961393810243 -4.746442911194897e-19 0.9762960071199334
    outer loop
      vertex 0.19101299543362338 1.299999999999999 2.916711471686571
      vertex 0.2847009496127728 1.299999999999999 2.9374815910820247
      vertex 0.2847009496127728 1.9875696880929574 2.9374815910820247
    endloop
  endfacet
  facet normal -0.30070579950427495 2.7594719722815714e-18 0.9537169507482264
    outer loop
      vertex 0.2847009496127728 1.299999999999999 2.9374815910820247
      vertex 0.37622215765823563 1.299999999999999 2.9663381171355008
      vertex 0.37622215765823563 1.983573785853567 2.9663381171355008
    endloop
  endfacet
  facet normal -0.38268343236508806 -1.782215196444947e-18 0.9238795325112873
    outer loop
      vertex 0.37622215765823563 1.299999999999999 2.9663381171355008
      vertex 0.4648800879147694 1.299999999999999 3.003061434259685
      vertex 0.4648800879147694 1.979702897022248 3.003061434259685
    endloop
  endfacet
  facet normal -0.4617486132350342 -2.1319610471716055e-19 0.8870108331782215
    outer loop
      vertex 0.4648800879147694 1.299999999999999 3.003061434259685
      vertex 0.55 1.299999999999999 3.0473720558371173
      vertex 0.55 1.9759864814003176 3.0473720558371173
    endloop
  endfacet
  facet normal -0.5372996083468247 -1.995941113594527e-18 0.843391445812885
    outer loop
      vertex 0.55 1.299999999999999 3.0473720558371173
      vertex 0.6309340799861507 1.299999999999999 3.098932751282109
      vertex 0.6309340799861507 1.9724528231546898 3.098932751282109
    endloop
  endfacet
  facet normal -0.6087614290087199 -5.620691126903824e-18 0.7933533402912356
    outer loop
      vertex 0.6309340799861507 1.299999999999999 3.098932751282109
      vertex 0.7070663706551933 1.299999999999999 3.157351112569124
      vertex 0.7070663706551933 1.9691288155582942 3.157351112569124
    endloop
  endfacet
  facet normal -0.675590207615659 5.06055633020868e-18 0.7372773368101252
    outer loop
      vertex 0.7070663706551933 1.299999999999999 3.157351112569124
      vertex 0.7778174593052024 1.299999999999999 3.2221825406947975
      vertex 0.7778174593052024 1.9660397563160306 3.2221825406947975
    endloop
  endfacet
  facet normal -0.7372773368101252 5.082154972398043e-18 0.675590207615659
    outer loop
      vertex 0.7778174593052024 1.299999999999999 3.2221825406947975
      vertex 0.8426488874308758 1.299999999999999 3.2929336293448066
      vertex 0.8426488874308758 1.963209155033958 3.2929336293448066
    endloop
  endfacet
  facet normal -0.7933533402912347 -2.0346611480643068e-18 0.6087614290087212
    outer loop
      vertex 0.8426488874308758 1.299999999999999 3.2929336293448066
      vertex 0.901067248717891 1.299999999999999 3.369065920013849
      vertex 0.901067248717891 1.960658554296998 3.369065920013849
    endloop
  endfacet
  facet normal -0.8433914458128869 -1.4960785339844134e-18 0.537299608346822
    outer loop
      vertex 0.901067248717891 1.299999999999999 3.369065920013849
      vertex 0.9526279441628825 1.299999999999999 3.45
      vertex 0.9526279441628825 1.95840736571685 3.45
    endloop
  endfacet
  facet normal -0.8870108331782205 -2.79473810214179e-18 0.46174861323503613
    outer loop
      vertex 0.9526279441628825 1.299999999999999 3.45
      vertex 0.996938565740315 1.299999999999999 3.5351199120852304
      vertex 0.996938565740315 1.9564727221979172 3.5351199120852304
    endloop
  endfacet
  facet normal -0.9238795325112865 -2.5976711692102204e-18 0.3826834323650903
    outer loop
      vertex 0.996938565740315 1.299999999999999 3.5351199120852304
      vertex 1.0336618828644994 1.299999999999999 3.6237778423417644
      vertex 1.0336618828644994 1.9548693475455483 3.6237778423417644
    endloop
  endfacet
  facet normal -0.9537169507482269 -3.0524474082894335e-18 0.30070579950427284
    outer loop
      vertex 1.0336618828644994 1.299999999999999 3.6237778423417644
      vertex 1.0625184089179753 1.299999999999999 3.715299050387227
      vertex 1.0625184089179753 1.953609444408988 3.715299050387227
    endloop
  endfacet
  facet normal -0.9762960071199341 -1.5460806203539365e-18 0.21643961393810002
    outer loop
      vertex 1.0625184089179753 1.299999999999999 3.715299050387227
      vertex 1.0832885283134288 1.299999999999999 3.8089870045663767
      vertex 1.0832885283134288 1.9527026014118611 3.8089870045663767
    endloop
  endfacet
  facet normal -0.9914448613738104 1.0536062533899593e-19 0.13052619222005288
    outer loop
      vertex 1.0832885283134288 1.299999999999999 3.8089870045663767
      vertex 1.0958141679009201 1.299999999999999 3.904128682977576
      vertex 1.0958141679009201 1.952155720176938 3.904128682977576
    endloop
  endfacet
  facet normal -0.9990482215818578 -2.530840676661599e-19 0.04361938736533648
    outer loop
      vertex 1.0958141679009201 1.299999999999999 3.904128682977576
      vertex 1.1 1.299999999999999 4
      vertex 1.1 1.951972962800637 4
    endloop
  endfacet
  facet normal -0.9990482215818578 2.530131444514135e-19 -0.043619387365336486
    outer loop
      vertex 1.1 1.299999999999999 4
      vertex 1.0958141679009201 1.299999999999999 4.095871317022424
      vertex 1.0958141679009201 1.952155720176938 4.095871317022424
    endloop
  endfacet
  facet normal -0.04361938736533655 0 0.9990482215818578
    outer loop
      vertex 0 1.299999999999999 2.9
      vertex 0.09587131702242399 1.995814167900921 2.90418583209908
      vertex 0 2 2.9
    endloop
  endfacet
  facet normal -0.13052619222005024 0 0.9914448613738106
    outer loop
      vertex 0.09587131702242399 1.299999999999999 2.90418583209908
      vertex 0.19101299543362338 1.9916601925115884 2.916711471686571
      vertex 0.09587131702242399 1.995814167900921 2.90418583209908
    endloop
  endfacet
  facet normal -0.21643961393810243 0 0.9762960071199335
    outer loop
      vertex 0.19101299543362338 1.299999999999999 2.916711471686571
      vertex 0.2847009496127728 1.9875696880929574 2.9374815910820247
      vertex 0.19101299543362338 1.9916601925115884 2.916711471686571
    endloop
  endfacet
  facet normal -0.30070579950427506 0 0.9537169507482265
    outer loop
      vertex 0.2847009496127728 1.299999999999999 2.9374815910820247
      vertex 0.37622215765823563 1.983573785853567 2.9663381171355008
      vertex 0.2847009496127728 1.9875696880929574 2.9374815910820247
    endloop
  endfacet
  facet normal -0.38268343236508806 0 0.9238795325112874
    outer loop
      vertex 0.37622215765823563 1.299999999999999 2.9663381171355008
      vertex 0.4648800879147694 1.979702897022248 3.003061434259685
      vertex 0.37622215765823563 1.983573785853567 2.9663381171355008
    endloop
  endfacet
  facet normal -0.4617486132350343 0 0.8870108331782217
    outer loop
      vertex 0.4648800879147694 1.299999999999999 3.003061434259685
      vertex 0.55 1.9759864814003176 3.0473720558371173
      vertex 0.4648800879147694 1.979702897022248 3.003061434259685
    endloop
  endfacet
  facet normal -0.5372996083468249 0 0.843391445812885
    outer loop
      vertex 0.55 1.299999999999999 3.0473720558371173
      vertex 0.6309340799861507 1.9724528231546898 3.098932751282109
      vertex 0.55 1.9759864814003176 3.0473720558371173
    endloop
  endfacet
  facet normal -0.6087614290087199 0 0.7933533402912357
    outer loop
      vertex 0.6309340799861507 1.299999999999999 3.098932751282109
      vertex 0.7070663706551933 1.9691288155582942 3.157351112569124
      vertex 0.6309340799861507 1.9724528231546898 3.098932751282109
    endloop
  endfacet
  facet normal -0.675590207615659 0 0.7372773368101252
    outer loop
      vertex 0.7070663706551933 1.299999999999999 3.157351112569124
      vertex 0.7778174593052024 1.9660397563160306 3.2221825406947975
      vertex 0.7070663706551933 1.9691288155582942 3.157351112569124
    endloop
  endfacet
  facet normal -0.7372773368101252 0 0.675590207615659
    outer loop
      vertex 0.7778174593052024 1.299999999999999 3.2221825406947975
      vertex 0.8426488874308758 1.963209155033958 3.2929336293448066
      vertex 0.7778174593052024 1.9660397563160306 3.2221825406947975
    endloop
  endfacet
  facet normal -0.7933533402912347 0 0.6087614290087213
    outer loop
      vertex 0.8426488874308758 1.299999999999999 3.2929336293448066
      vertex 0.901067248717891 1.960658554296998 3.369065920013849
      vertex 0.8426488874308758 1.963209155033958 3.2929336293448066
    endloop
  endfacet
  facet normal -0.8433914458128869 0 0.5372996083468219
    outer loop
      vertex 0.901067248717891 1.299999999999999 3.369065920013849
      vertex 0.9526279441628825 1.95840736571685 3.45
      vertex 0.901067248717891 1.960658554296998 3.369065920013849
    endloop
  endfacet
  facet normal -0.9238795325112865 0 0.3826834323650903
    outer loop
      vertex 0.996938565740315 1.299999999999999 3.5351199120852304
      vertex 1.0336618828644994 1.9548693475455483 3.6237778423417644
      vertex 0.996938565740315 1.9564727221979172 3.5351199120852304
    endloop
  endfacet
  facet normal -0.8870108331782206 0 0.46174861323503613
    outer loop
      vertex 0.9526279441628825 1.299999999999999 3.45
      vertex 0.996938565740315 1.9564727221979172 3.5351199120852304
      vertex 0.9526279441628825 1.95840736571685 3.45
    endloop
  endfacet
  facet normal -0.953716950748227 0 0.3007057995042729
    outer loop
      vertex 1.0336618828644994 1.299999999999999 3.6237778423417644
      vertex 1.0625184089179753 1.953609444408988 3.715299050387227
      vertex 1.0336618828644994 1.9548693475455483 3.6237778423417644
    endloop
  endfacet
  facet normal -0.976296007119934 0 0.2164396139381
    outer loop
      vertex 1.0625184089179753 1.299999999999999 3.715299050387227
      vertex 1.0832885283134288 1.9527026014118611 3.8089870045663767
      vertex 1.0625184089179753 1.953609444408988 3.715299050387227
    endloop
  endfacet
  facet normal -0.9914448613738102 0 0.13052619222005285
    outer loop
      vertex 1.0832885283134288 1.299999999999999 3.8089870045663767
      vertex 1.0958141679009201 1.952155720176938 3.904128682977576
      vertex 1.0832885283134288 1.9527026014118611 3.8089870045663767
    endloop
  endfacet
  facet normal -0.9990482215818578 0 0.043619387365336486
    outer loop
      vertex 1.0958141679009201 1.299999999999999 3.904128682977576
      vertex 1.1 1.951972962800637 4
      vertex 1.0958141679009201 1.952155720176938 3.904128682977576
    endloop
  endfacet
  facet normal -0.9990482215818578 0 -0.04361938736533648
    outer loop
      vertex 1.1 1.299999999999999 4
      vertex 1.0958141679009201 1.952155720176938 4.095871317022424
      vertex 1.1 1.951972962800637 4
    endloop
  endfacet
  facet normal 0 1 0
    outer loop
      vertex -1.0958141679009201 1.299999999999999 4.095871317022424
      vertex 1.0832885283134288 1.299999999999999 4.191012995433623
      vertex 1.0958141679009201 1.299999999999999 4.095871317022424
    endloop
  endfacet
  facet normal 0 1 0
    outer loop
      vertex -1.0832885283134288 1.299999999999999 4.191012995433623
      vertex 1.0625184089179753 1.299999999999999 4.284700949612773
      vertex 1.0832885283134288 1.299999999999999 4.191012995433623
    endloop
  endfacet
  facet normal 0 1 0
    outer loop
      vertex -1.0625184089179753 1.299999999999999 4.284700949612773
      vertex 1.0336618828644994 1.299999999999999 4.376222157658235
      vertex 1.0625184089179753 1.299999999999999 4.284700949612773
    endloop
  endfacet
  facet normal 0 1 0
    outer loop
      vertex -1.0336618828644994 1.299999999999999 4.376222157658235
      vertex 0.996938565740315 1.299999999999999 4.46488008791477
      vertex 1.0336618828644994 1.299999999999999 4.376222157658235
    endloop
  endfacet
  facet normal 0 1 0
    outer loop
      vertex -0.996938565740315 1.299999999999999 4.46488008791477
      vertex 0.9526279441628825 1.299999999999999 4.55
      vertex 0.996938565740315 1.299999999999999 4.46488008791477
    endloop
  endfacet
  facet normal 0 1 0
    outer loop
      vertex -0.9526279441628825 1.299999999999999 4.55
      vertex 0.901067248717891 1.299999999999999 4.630934079986151
      vertex 0.9526279441628825 1.299999999999999 4.55
    endloop
  endfacet
  facet normal 0 1 0
    outer loop
      vertex -0.901067248717891 1.299999999999999 4.630934079986151
      vertex 0.8426488874308758 1.299999999999999 4.707066370655193
      vertex 0.901067248717891 1.299999999999999 4.630934079986151
    endloop
  endfacet
  facet normal 0 1 0
    outer loop
      vertex -0.8426488874308758 1.299999999999999 4.707066370655193
      vertex 0.7778174593052024 1.299999999999999 4.7778174593052025
      vertex 0.8426488874308758 1.299999999999999 4.707066370655193
    endloop
  endfacet
  facet normal 0 1 0
    outer loop
      vertex -0.7070663706551933 1.299999999999999 4.842648887430876
      vertex 0.6309340799861507 1.299999999999999 4.901067248717891
      vertex 0.7070663706551933 1.299999999999999 4.842648887430876
    endloop
  endfacet
  facet normal 0 1 0
    outer loop
      vertex -0.7778174593052024 1.299999999999999 4.7778174593052025
      vertex 0.7070663706551933 1.299999999999999 4.842648887430876
      vertex 0.7778174593052024 1.299999999999999 4.7778174593052025
    endloop
  endfacet
  facet normal 0 1 0
    outer loop
      vertex -0.19101299543362338 1.299999999999999 5.083288528313429
      vertex 0.09587131702242399 1.299999999999999 5.095814167900921
      vertex 0.19101299543362338 1.299999999999999 5.083288528313429
    endloop
  endfacet
  facet normal 0 1 0
    outer loop
      vertex -0.09587131702242399 1.299999999999999 5.095814167900921
      vertex 0 1.299999999999999 5.1
      vertex 0.09587131702242399 1.299999999999999 5.095814167900921
    endloop
  endfacet
  facet normal 0 1 0
    outer loop
      vertex -0.2847009496127728 1.299999999999999 5.062518408917976
      vertex 0.19101299543362338 1.299999999999999 5.083288528313429
      vertex 0.2847009496127728 1.299999999999999 5.062518408917976
    endloop
  endfacet
  facet normal 0 1 0
    outer loop
      vertex -0.37622215765823563 1.299999999999999 5.033661882864499
      vertex 0.2847009496127728 1.299999999999999 5.062518408917976
      vertex 0.37622215765823563 1.299999999999999 5.033661882864499
    endloop
  endfacet
  facet normal 0 1 0
    outer loop
      vertex -0.4648800879147694 1.299999999999999 4.996938565740315
      vertex 0.37622215765823563 1.299999999999999 5.033661882864499
      vertex 0.4648800879147694 1.299999999999999 4.996938565740315
    endloop
  endfacet
  facet normal 0 1 0
    outer loop
      vertex -0.6309340799861507 1.299999999999999 4.901067248717891
      vertex 0.55 1.299999999999999 4.952627944162883
      vertex 0.6309340799861507 1.299999999999999 4.901067248717891
    endloop
  endfacet
  facet normal 0 1 0
    outer loop
      vertex -0.55 1.299999999999999 4.952627944162883
      vertex 0.4648800879147694 1.299999999999999 4.996938565740315
      vertex 0.55 1.299999999999999 4.952627944162883
    endloop
  endfacet
  facet normal -0.043619387365327306 0 -0.9990482215818582
    outer loop
      vertex 0 1.299999999999999 5.1
      vertex 0 2 5.1
      vertex 0.09587131702242399 1.299999999999999 5.095814167900921
    endloop
  endfacet
  facet normal -0.1305261922200548 0 -0.9914448613738099
    outer loop
      vertex 0.09587131702242399 1.299999999999999 5.095814167900921
      vertex 0.09587131702242399 1.995814167900921 5.095814167900921
      vertex 0.19101299543362338 1.299999999999999 5.083288528313429
    endloop
  endfacet
  facet normal -0.21643961393809805 0 -0.9762960071199345
    outer loop
      vertex 0.19101299543362338 1.299999999999999 5.083288528313429
      vertex 0.19101299543362338 1.9916601925115884 5.083288528313429
      vertex 0.2847009496127728 1.299999999999999 5.062518408917976
    endloop
  endfacet
  facet normal -0.3007057995042792 0 -0.953716950748225
    outer loop
      vertex 0.2847009496127728 1.299999999999999 5.062518408917976
      vertex 0.2847009496127728 1.9875696880929574 5.062518408917976
      vertex 0.37622215765823563 1.299999999999999 5.033661882864499
    endloop
  endfacet
  facet normal -0.38268343236508806 0 -0.9238795325112874
    outer loop
      vertex 0.37622215765823563 1.299999999999999 5.033661882864499
      vertex 0.37622215765823563 1.983573785853567 5.033661882864499
      vertex 0.4648800879147694 1.299999999999999 4.996938565740315
    endloop
  endfacet
  facet normal -0.4617486132350343 0 -0.8870108331782217
    outer loop
      vertex 0.4648800879147694 1.299999999999999 4.996938565740315
      vertex 0.4648800879147694 1.979702897022248 4.996938565740315
      vertex 0.55 1.299999999999999 4.952627944162883
    endloop
  endfacet
  facet normal -0.5372996083468249 0 -0.843391445812885
    outer loop
      vertex 0.55 1.299999999999999 4.952627944162883
      vertex 0.55 1.9759864814003176 4.952627944162883
      vertex 0.6309340799861507 1.299999999999999 4.901067248717891
    endloop
  endfacet
  facet normal -0.9914448613738102 -1.0527234662098095e-19 -0.13052619222005285
    outer loop
      vertex 1.0958141679009201 1.299999999999999 4.095871317022424
      vertex 1.0832885283134288 1.299999999999999 4.191012995433623
      vertex 1.0832885283134288 1.9527026014118611 4.191012995433623
    endloop
  endfacet
  facet normal -0.9762960071199341 -3.1326743131520744e-19 -0.216439613938099
    outer loop
      vertex 1.0832885283134288 1.299999999999999 4.191012995433623
      vertex 1.0625184089179753 1.299999999999999 4.284700949612773
      vertex 1.0625184089179753 1.953609444408988 4.284700949612773
    endloop
  endfacet
  facet normal -0.9537169507482262 -3.177005147564052e-18 -0.30070579950427556
    outer loop
      vertex 1.0625184089179753 1.299999999999999 4.284700949612773
      vertex 1.0336618828644994 1.299999999999999 4.376222157658235
      vertex 1.0336618828644994 1.9548693475455483 4.376222157658235
    endloop
  endfacet
  facet normal -0.9238795325112871 -1.571368455634492e-18 -0.38268343236508856
    outer loop
      vertex 1.0336618828644994 1.299999999999999 4.376222157658235
      vertex 0.996938565740315 1.299999999999999 4.46488008791477
      vertex 0.996938565740315 1.9564727221979172 4.46488008791477
    endloop
  endfacet
  facet normal -0.8433914458128869 1.4909806587070784e-18 -0.5372996083468219
    outer loop
      vertex 0.9526279441628825 1.299999999999999 4.55
      vertex 0.901067248717891 1.299999999999999 4.630934079986151
      vertex 0.901067248717891 1.960658554296998 4.630934079986151
    endloop
  endfacet
  facet normal -0.8870108331782206 2.7865261315017957e-18 -0.46174861323503613
    outer loop
      vertex 0.996938565740315 1.299999999999999 4.46488008791477
      vertex 0.9526279441628825 1.299999999999999 4.55
      vertex 0.9526279441628825 1.95840736571685 4.55
    endloop
  endfacet
  facet normal -0.675590207615659 -5.037194074781398e-18 -0.7372773368101252
    outer loop
      vertex 0.7778174593052024 1.299999999999999 4.7778174593052025
      vertex 0.7070663706551933 1.299999999999999 4.842648887430876
      vertex 0.7070663706551933 1.9691288155582942 4.842648887430876
    endloop
  endfacet
  facet normal -0.7933533402912332 8.030117544039657e-19 -0.6087614290087235
    outer loop
      vertex 0.901067248717891 1.299999999999999 4.630934079986151
      vertex 0.8426488874308758 1.299999999999999 4.707066370655193
      vertex 0.8426488874308758 1.963209155033958 4.707066370655193
    endloop
  endfacet
  facet normal -0.7372773368101273 0 -0.6755902076156567
    outer loop
      vertex 0.7778174593052024 1.299999999999999 4.7778174593052025
      vertex 0.7778174593052024 1.9660397563160306 4.7778174593052025
      vertex 0.8426488874308758 1.299999999999999 4.707066370655193
    endloop
  endfacet
  facet normal -0.6087614290087199 0 -0.7933533402912357
    outer loop
      vertex 0.6309340799861507 1.299999999999999 4.901067248717891
      vertex 0.6309340799861507 1.9724528231546898 4.901067248717891
      vertex 0.7070663706551933 1.299999999999999 4.842648887430876
    endloop
  endfacet
  facet normal -0.04361938736532731 0 -0.9990482215818582
    outer loop
      vertex 0.09587131702242399 1.299999999999999 5.095814167900921
      vertex 0 2 5.1
      vertex 0.09587131702242399 1.995814167900921 5.095814167900921
    endloop
  endfacet
  facet normal -0.1305261922200548 0 -0.9914448613738099
    outer loop
      vertex 0.19101299543362338 1.299999999999999 5.083288528313429
      vertex 0.09587131702242399 1.995814167900921 5.095814167900921
      vertex 0.19101299543362338 1.9916601925115884 5.083288528313429
    endloop
  endfacet
  facet normal -0.21643961393809805 0 -0.9762960071199344
    outer loop
      vertex 0.2847009496127728 1.299999999999999 5.062518408917976
      vertex 0.19101299543362338 1.9916601925115884 5.083288528313429
      vertex 0.2847009496127728 1.9875696880929574 5.062518408917976
    endloop
  endfacet
  facet normal -0.3007057995042791 0 -0.9537169507482249
    outer loop
      vertex 0.37622215765823563 1.299999999999999 5.033661882864499
      vertex 0.2847009496127728 1.9875696880929574 5.062518408917976
      vertex 0.37622215765823563 1.983573785853567 5.033661882864499
    endloop
  endfacet
  facet normal -0.38268343236508806 0 -0.9238795325112873
    outer loop
      vertex 0.4648800879147694 1.299999999999999 4.996938565740315
      vertex 0.37622215765823563 1.983573785853567 5.033661882864499
      vertex 0.4648800879147694 1.979702897022248 4.996938565740315
    endloop
  endfacet
  facet normal -0.4617486132350342 0 -0.8870108331782215
    outer loop
      vertex 0.55 1.299999999999999 4.952627944162883
      vertex 0.4648800879147694 1.979702897022248 4.996938565740315
      vertex 0.55 1.9759864814003176 4.952627944162883
    endloop
  endfacet
  facet normal -0.9914448613738104 0 -0.13052619222005288
    outer loop
      vertex 1.0958141679009201 1.299999999999999 4.095871317022424
      vertex 1.0832885283134288 1.9527026014118611 4.191012995433623
      vertex 1.0958141679009201 1.952155720176938 4.095871317022424
    endloop
  endfacet
  facet normal -0.9762960071199343 0 -0.216439613938099
    outer loop
      vertex 1.0832885283134288 1.299999999999999 4.191012995433623
      vertex 1.0625184089179753 1.953609444408988 4.284700949612773
      vertex 1.0832885283134288 1.9527026014118611 4.191012995433623
    endloop
  endfacet
  facet normal -0.9537169507482262 0 -0.3007057995042755
    outer loop
      vertex 1.0625184089179753 1.299999999999999 4.284700949612773
      vertex 1.0336618828644994 1.9548693475455483 4.376222157658235
      vertex 1.0625184089179753 1.953609444408988 4.284700949612773
    endloop
  endfacet
  facet normal -0.9238795325112873 0 -0.38268343236508867
    outer loop
      vertex 1.0336618828644994 1.299999999999999 4.376222157658235
      vertex 0.996938565740315 1.9564727221979172 4.46488008791477
      vertex 1.0336618828644994 1.9548693475455483 4.376222157658235
    endloop
  endfacet
  facet normal -0.8433914458128869 0 -0.537299608346822
    outer loop
      vertex 0.9526279441628825 1.299999999999999 4.55
      vertex 0.901067248717891 1.960658554296998 4.630934079986151
      vertex 0.9526279441628825 1.95840736571685 4.55
    endloop
  endfacet
  facet normal -0.8870108331782205 0 -0.46174861323503613
    outer loop
      vertex 0.996938565740315 1.299999999999999 4.46488008791477
      vertex 0.9526279441628825 1.95840736571685 4.55
      vertex 0.996938565740315 1.9564727221979172 4.46488008791477
    endloop
  endfacet
  facet normal -0.6087614290087199 0 -0.7933533402912356
    outer loop
      vertex 0.7070663706551933 1.299999999999999 4.842648887430876
      vertex 0.6309340799861507 1.9724528231546898 4.901067248717891
      vertex 0.7070663706551933 1.9691288155582942 4.842648887430876
    endloop
  endfacet
  facet normal -0.793353340291233 0 -0.6087614290087234
    outer loop
      vertex 0.901067248717891 1.299999999999999 4.630934079986151
      vertex 0.8426488874308758 1.963209155033958 4.707066370655193
      vertex 0.901067248717891 1.960658554296998 4.630934079986151
    endloop
  endfacet
  facet normal -0.7372773368101272 0 -0.6755902076156567
    outer loop
      vertex 0.8426488874308758 1.299999999999999 4.707066370655193
      vertex 0.7778174593052024 1.9660397563160306 4.7778174593052025
      vertex 0.8426488874308758 1.963209155033958 4.707066370655193
    endloop
  endfacet
  facet normal -0.675590207615659 0 -0.7372773368101252
    outer loop
      vertex 0.7778174593052024 1.299999999999999 4.7778174593052025
      vertex 0.7070663706551933 1.9691288155582942 4.842648887430876
      vertex 0.7778174593052024 1.9660397563160306 4.7778174593052025
    endloop
  endfacet
  facet normal -0.5372996083468247 0 -0.843391445812885
    outer loop
      vertex 0.6309340799861507 1.299999999999999 4.901067248717891
      vertex 0.55 1.9759864814003176 4.952627944162883
      vertex 0.6309340799861507 1.9724528231546898 4.901067248717891
    endloop
  endfacet
endsolid OpenSCAD_Model
